999
dxflib 3.26.4.0
  0
SECTION
  2
HEADER
  9
$ACADVER
  1
AC1015
  9
$HANDSEED
  5
FFFF
  9
$DIMADEC
 70
0
  9
$DIMASZ
 40
2.5
  9
$DIMATFIT
 70
0
  9
$DIMAUNIT
 70
0
  9
$DIMAZIN
 70
2
  9
$DIMBLK
  1
0
  9
$DIMBLK1
  1
0
  9
$DIMBLK2
  1
0
  9
$DIMDEC
 70
4
  9
$DIMDLI
 40
5.0
  9
$DIMDSEP
 70
46
  9
$DIMEXE
 40
1.25
  9
$DIMEXO
 40
0.625
  9
$DIMGAP
 40
0.625
  9
$DIMLFAC
 40
0.0
  9
$DIMLUNIT
 70
2
  9
$DIMSCALE
 40
1.0
  9
$DIMTAD
 70
1
  9
$DIMTIH
 70
0
  9
$DIMTSZ
 40
0.0
  9
$DIMTXT
 40
2.5
  9
$DIMZIN
 70
8
  9
$DWGCODEPAGE
  3
ANSI_1252
  9
$INSUNITS
 70
4
  9
$LTSCALE
 40
1.0
  9
$MAXACTVP
 70
64
  9
$MEASUREMENT
 70
1
  9
$MIRRTEXT
 70
0
  9
$PDMODE
 70
0
  9
$PDSIZE
 40
0.0
  0
ENDSEC
  0
SECTION
  2
TABLES
  0
TABLE
  2
VPORT
  5
8
100
AcDbSymbolTable
 70
1
  0
VPORT
  5
30
100
AcDbSymbolTableRecord
100
AcDbViewportTableRecord
  2
*Active
 70
0
 10
0.0
 20
0.0
 11
1.0
 21
1.0
 12
286.3055555555554861
 22
148.5
 13
0.0
 23
0.0
 14
10.0
 24
10.0
 15
10.0
 25
10.0
 16
0.0
 26
0.0
 36
1.0
 17
0.0
 27
0.0
 37
0.0
 40
297.0
 41
1.92798353909465
 42
50.0
 43
0.0
 44
0.0
 50
0.0
 51
0.0
 71
0
 72
100
 73
1
 74
3
 75
1
 76
1
 77
0
 78
0
281
0
 65
1
110
0.0
120
0.0
130
0.0
111
1.0
121
0.0
131
0.0
112
0.0
122
1.0
132
0.0
 79
0
146
0.0
  0
ENDTAB
  0
TABLE
  2
LTYPE
  5
5
100
AcDbSymbolTable
 70
41
  0
LTYPE
  5
16
100
AcDbSymbolTableRecord
100
AcDbLinetypeTableRecord
  2
Continuous
 70
0
  3
Solid line
 72
65
 73
0
 40
0.0
  0
LTYPE
  5
14
100
AcDbSymbolTableRecord
100
AcDbLinetypeTableRecord
  2
BYBLOCK
 70
0
  3

 72
65
 73
0
 40
0.0
  0
LTYPE
  5
31
100
AcDbSymbolTableRecord
100
AcDbLinetypeTableRecord
  2
DASHDOTX2
 70
0
  3
Dash dot (2x) ____  .  ____  .  ____  .  ___
 72
65
 73
4
 40
50.7999999999999972
 49
25.3999999999999986
 74
0
 49
-12.6499999999999986
 74
0
 49
0.1
 74
0
 49
-12.6499999999999986
 74
0
  0
LTYPE
  5
32
100
AcDbSymbolTableRecord
100
AcDbLinetypeTableRecord
  2
ACAD_ISO08W100
 70
0
  3
ISO long-dash short-dash ____ __ ____ __ ____ _
 72
65
 73
4
 40
36.0
 49
24.0
 74
0
 49
-3.0
 74
0
 49
6.0
 74
0
 49
-3.0
 74
0
  0
LTYPE
  5
33
100
AcDbSymbolTableRecord
100
AcDbLinetypeTableRecord
  2
ACAD_ISO04W100
 70
0
  3
ISO long-dash dot ____ . ____ . ____ . ____ . _
 72
65
 73
4
 40
30.0
 49
24.0
 74
0
 49
-2.9500000000000002
 74
0
 49
0.1
 74
0
 49
-2.9500000000000002
 74
0
  0
LTYPE
  5
34
100
AcDbSymbolTableRecord
100
AcDbLinetypeTableRecord
  2
DOT
 70
0
  3
Dot . . . . . . . . . . . . . . . . . . . . . . . .
 72
65
 73
2
 40
6.3499999999999996
 49
0.1
 74
0
 49
-6.25
 74
0
  0
LTYPE
  5
35
100
AcDbSymbolTableRecord
100
AcDbLinetypeTableRecord
  2
ACAD_ISO12W100
 70
0
  3
ISO dash double-dot __ . . __ . . __ . . __ . . 
 72
65
 73
6
 40
21.0
 49
12.0
 74
0
 49
-2.9500000000000002
 74
0
 49
0.1
 74
0
 49
-2.9000000000000004
 74
0
 49
0.1
 74
0
 49
-2.9500000000000002
 74
0
  0
LTYPE
  5
36
100
AcDbSymbolTableRecord
100
AcDbLinetypeTableRecord
  2
ACAD_ISO06W100
 70
0
  3
ISO long-dash triple-dot ____ ... ____ ... ____
 72
65
 73
8
 40
36.0000000000000071
 49
24.0
 74
0
 49
-2.9500000000000002
 74
0
 49
0.1
 74
0
 49
-2.9000000000000004
 74
0
 49
0.1
 74
0
 49
-2.9000000000000004
 74
0
 49
0.1
 74
0
 49
-2.9500000000000002
 74
0
  0
LTYPE
  5
37
100
AcDbSymbolTableRecord
100
AcDbLinetypeTableRecord
  2
DIVIDE
 70
0
  3
Divide ____ . . ____ . . ____ . . ____ . . ____
 72
65
 73
6
 40
31.7500000000000036
 49
12.6999999999999993
 74
0
 49
-6.2999999999999998
 74
0
 49
0.1
 74
0
 49
-6.25
 74
0
 49
0.1
 74
0
 49
-6.2999999999999998
 74
0
  0
LTYPE
  5
38
100
AcDbSymbolTableRecord
100
AcDbLinetypeTableRecord
  2
ACAD_ISO10W100
 70
0
  3
ISO dash dot __ . __ . __ . __ . __ . __ . __ . 
 72
65
 73
4
 40
18.0
 49
12.0
 74
0
 49
-2.9500000000000002
 74
0
 49
0.1
 74
0
 49
-2.9500000000000002
 74
0
  0
LTYPE
  5
39
100
AcDbSymbolTableRecord
100
AcDbLinetypeTableRecord
  2
ACAD_ISO05W100
 70
0
  3
ISO long-dash double-dot ____ .. ____ .. ____ . 
 72
65
 73
6
 40
33.0000000000000071
 49
24.0
 74
0
 49
-2.9500000000000002
 74
0
 49
0.1
 74
0
 49
-2.9000000000000004
 74
0
 49
0.1
 74
0
 49
-2.9500000000000002
 74
0
  0
LTYPE
  5
3A
100
AcDbSymbolTableRecord
100
AcDbLinetypeTableRecord
  2
DOT2
 70
0
  3
Dot (.5x) ........................................
 72
65
 73
2
 40
3.1749999999999998
 49
0.1
 74
0
 49
-3.0749999999999997
 74
0
  0
LTYPE
  5
3B
100
AcDbSymbolTableRecord
100
AcDbLinetypeTableRecord
  2
ACAD_ISO14W100
 70
0
  3
ISO dash triple-dot __ . . . __ . . . __ . . . _
 72
65
 73
8
 40
24.0000000000000036
 49
12.0
 74
0
 49
-2.9500000000000002
 74
0
 49
0.1
 74
0
 49
-2.9000000000000004
 74
0
 49
0.1
 74
0
 49
-2.9000000000000004
 74
0
 49
0.1
 74
0
 49
-2.9500000000000002
 74
0
  0
LTYPE
  5
3C
100
AcDbSymbolTableRecord
100
AcDbLinetypeTableRecord
  2
BORDER2
 70
0
  3
Border (.5x) __.__.__.__.__.__.__.__.__.__.__.
 72
65
 73
6
 40
22.2250000000000014
 49
6.3499999999999996
 74
0
 49
-3.1749999999999998
 74
0
 49
6.3499999999999996
 74
0
 49
-3.125
 74
0
 49
0.1
 74
0
 49
-3.125
 74
0
  0
LTYPE
  5
3D
100
AcDbSymbolTableRecord
100
AcDbLinetypeTableRecord
  2
BORDERX2
 70
0
  3
Border (2x) ____  ____  .  ____  ____  .  ___
 72
65
 73
6
 40
88.8999999999999773
 49
25.3999999999999986
 74
0
 49
-12.6999999999999993
 74
0
 49
25.3999999999999986
 74
0
 49
-12.6499999999999986
 74
0
 49
0.1
 74
0
 49
-12.6499999999999986
 74
0
  0
LTYPE
  5
3E
100
AcDbSymbolTableRecord
100
AcDbLinetypeTableRecord
  2
DASHED
 70
0
  3
Dashed __ __ __ __ __ __ __ __ __ __ __ __ __ _
 72
65
 73
2
 40
19.0499999999999972
 49
12.6999999999999993
 74
0
 49
-6.3499999999999996
 74
0
  0
LTYPE
  5
3F
100
AcDbSymbolTableRecord
100
AcDbLinetypeTableRecord
  2
BORDER
 70
0
  3
Border __ __ . __ __ . __ __ . __ __ . __ __ .
 72
65
 73
6
 40
44.4499999999999957
 49
12.6999999999999993
 74
0
 49
-6.3499999999999996
 74
0
 49
12.6999999999999993
 74
0
 49
-6.2999999999999998
 74
0
 49
0.1
 74
0
 49
-6.2999999999999998
 74
0
  0
LTYPE
  5
40
100
AcDbSymbolTableRecord
100
AcDbLinetypeTableRecord
  2
HIDDEN
 70
0
  3
Hidden __ __ __ __ __ __ __ __ __ __ __ __ __ __
 72
65
 73
2
 40
9.5249999999999986
 49
6.3499999999999996
 74
0
 49
-3.1749999999999998
 74
0
  0
LTYPE
  5
15
100
AcDbSymbolTableRecord
100
AcDbLinetypeTableRecord
  2
BYLAYER
 70
0
  3

 72
65
 73
0
 40
0.0
  0
LTYPE
  5
41
100
AcDbSymbolTableRecord
100
AcDbLinetypeTableRecord
  2
HIDDENX2
 70
0
  3
Hidden (2x) ____ ____ ____ ____ ____ ____ ____ 
 72
65
 73
2
 40
19.0499999999999972
 49
12.6999999999999993
 74
0
 49
-6.3499999999999996
 74
0
  0
LTYPE
  5
42
100
AcDbSymbolTableRecord
100
AcDbLinetypeTableRecord
  2
DASHDOT2
 70
0
  3
Dash dot (.5x) _._._._._._._._._._._._._._._.
 72
65
 73
4
 40
12.6999999999999993
 49
6.3499999999999996
 74
0
 49
-3.125
 74
0
 49
0.1
 74
0
 49
-3.125
 74
0
  0
LTYPE
  5
43
100
AcDbSymbolTableRecord
100
AcDbLinetypeTableRecord
  2
ACAD_ISO07W100
 70
0
  3
ISO dot . . . . . . . . . . . . . . . . . . . . 
 72
65
 73
2
 40
3.0
 49
0.1
 74
0
 49
-2.8999999999999999
 74
0
  0
LTYPE
  5
44
100
AcDbSymbolTableRecord
100
AcDbLinetypeTableRecord
  2
CENTER
 70
0
  3
Center ____ _ ____ _ ____ _ ____ _ ____ _ ____
 72
65
 73
4
 40
50.8000000000000043
 49
31.75
 74
0
 49
-6.3499999999999996
 74
0
 49
6.3499999999999996
 74
0
 49
-6.3499999999999996
 74
0
  0
LTYPE
  5
45
100
AcDbSymbolTableRecord
100
AcDbLinetypeTableRecord
  2
ACAD_ISO11W100
 70
0
  3
ISO double-dash dot __ __ . __ __ . __ __ . __ _
 72
65
 73
6
 40
33.0
 49
12.0
 74
0
 49
-3.0
 74
0
 49
12.0
 74
0
 49
-2.9500000000000002
 74
0
 49
0.1
 74
0
 49
-2.9500000000000002
 74
0
  0
LTYPE
  5
46
100
AcDbSymbolTableRecord
100
AcDbLinetypeTableRecord
  2
PHANTOM
 70
0
  3
Phantom ______  __  __  ______  __  __  ______ 
 72
65
 73
6
 40
63.5000000000000071
 49
31.75
 74
0
 49
-6.3499999999999996
 74
0
 49
6.3499999999999996
 74
0
 49
-6.3499999999999996
 74
0
 49
6.3499999999999996
 74
0
 49
-6.3499999999999996
 74
0
  0
LTYPE
  5
47
100
AcDbSymbolTableRecord
100
AcDbLinetypeTableRecord
  2
DASHED2
 70
0
  3
Dashed (.5x) _ _ _ _ _ _ _ _ _ _ _ _ _ _ _ _ _ 
 72
65
 73
2
 40
9.5249999999999986
 49
6.3499999999999996
 74
0
 49
-3.1749999999999998
 74
0
  0
LTYPE
  5
48
100
AcDbSymbolTableRecord
100
AcDbLinetypeTableRecord
  2
ACAD_ISO02W100
 70
0
  3
ISO dash __ __ __ __ __ __ __ __ __ __ __ __ __
 72
65
 73
2
 40
15.0
 49
12.0
 74
0
 49
-3.0
 74
0
  0
LTYPE
  5
49
100
AcDbSymbolTableRecord
100
AcDbLinetypeTableRecord
  2
ACAD_ISO13W100
 70
0
  3
ISO double-dash double-dot __ __ . . __ __ . . _
 72
65
 73
8
 40
36.0000000000000071
 49
12.0
 74
0
 49
-3.0
 74
0
 49
12.0
 74
0
 49
-2.9500000000000002
 74
0
 49
0.1
 74
0
 49
-2.9000000000000004
 74
0
 49
0.1
 74
0
 49
-2.9500000000000002
 74
0
  0
LTYPE
  5
4A
100
AcDbSymbolTableRecord
100
AcDbLinetypeTableRecord
  2
DIVIDEX2
 70
0
  3
Divide (2x) ________  .  .  ________  .  .  _
 72
65
 73
6
 40
63.5
 49
25.3999999999999986
 74
0
 49
-12.6499999999999986
 74
0
 49
0.1
 74
0
 49
-12.5999999999999979
 74
0
 49
0.1
 74
0
 49
-12.6499999999999986
 74
0
  0
LTYPE
  5
4B
100
AcDbSymbolTableRecord
100
AcDbLinetypeTableRecord
  2
DASHEDX2
 70
0
  3
Dashed (2x) ____  ____  ____  ____  ____  ___
 72
65
 73
2
 40
38.0999999999999943
 49
25.3999999999999986
 74
0
 49
-12.6999999999999993
 74
0
  0
LTYPE
  5
4C
100
AcDbSymbolTableRecord
100
AcDbLinetypeTableRecord
  2
PHANTOMX2
 70
0
  3
Phantom (2x) ____________    ____    ____   _
 72
65
 73
6
 40
127.0000000000000142
 49
63.5
 74
0
 49
-12.6999999999999993
 74
0
 49
12.6999999999999993
 74
0
 49
-12.6999999999999993
 74
0
 49
12.6999999999999993
 74
0
 49
-12.6999999999999993
 74
0
  0
LTYPE
  5
4D
100
AcDbSymbolTableRecord
100
AcDbLinetypeTableRecord
  2
DASHDOT
 70
0
  3
Dash dot __ . __ . __ . __ . __ . __ . __ . __
 72
65
 73
4
 40
25.4000000000000021
 49
12.6999999999999993
 74
0
 49
-6.2999999999999998
 74
0
 49
0.1
 74
0
 49
-6.2999999999999998
 74
0
  0
LTYPE
  5
4E
100
AcDbSymbolTableRecord
100
AcDbLinetypeTableRecord
  2
PHANTOM2
 70
0
  3
Phantom (.5x) ___ _ _ ___ _ _ ___ _ _ ___ _ _
 72
65
 73
6
 40
31.7500000000000036
 49
15.875
 74
0
 49
-3.1749999999999998
 74
0
 49
3.1749999999999998
 74
0
 49
-3.1749999999999998
 74
0
 49
3.1749999999999998
 74
0
 49
-3.1749999999999998
 74
0
  0
LTYPE
  5
4F
100
AcDbSymbolTableRecord
100
AcDbLinetypeTableRecord
  2
CENTER2
 70
0
  3
Center (.5x) ___ _ ___ _ ___ _ ___ _ ___ _ ___
 72
65
 73
4
 40
28.5750000000000028
 49
19.0500000000000007
 74
0
 49
-3.1749999999999998
 74
0
 49
3.1749999999999998
 74
0
 49
-3.1749999999999998
 74
0
  0
LTYPE
  5
50
100
AcDbSymbolTableRecord
100
AcDbLinetypeTableRecord
  2
DIVIDE2
 70
0
  3
Divide (.5x) __..__..__..__..__..__..__..__.._
 72
65
 73
6
 40
15.8749999999999982
 49
6.3499999999999996
 74
0
 49
-3.125
 74
0
 49
0.1
 74
0
 49
-3.0750000000000002
 74
0
 49
0.1
 74
0
 49
-3.125
 74
0
  0
LTYPE
  5
51
100
AcDbSymbolTableRecord
100
AcDbLinetypeTableRecord
  2
ACAD_ISO15W100
 70
0
  3
ISO double-dash triple-dot __ __ . . . __ __ . .
 72
65
 73
10
 40
39.0000000000000071
 49
12.0
 74
0
 49
-3.0
 74
0
 49
12.0
 74
0
 49
-2.9500000000000002
 74
0
 49
0.1
 74
0
 49
-2.9000000000000004
 74
0
 49
0.1
 74
0
 49
-2.9000000000000004
 74
0
 49
0.1
 74
0
 49
-2.9500000000000002
 74
0
  0
LTYPE
  5
52
100
AcDbSymbolTableRecord
100
AcDbLinetypeTableRecord
  2
CENTERX2
 70
0
  3
Center (2x) ________  __  ________  __  _____
 72
65
 73
4
 40
101.6000000000000085
 49
63.5
 74
0
 49
-12.6999999999999993
 74
0
 49
12.6999999999999993
 74
0
 49
-12.6999999999999993
 74
0
  0
LTYPE
  5
53
100
AcDbSymbolTableRecord
100
AcDbLinetypeTableRecord
  2
HIDDEN2
 70
0
  3
Hidden (.5x) _ _ _ _ _ _ _ _ _ _ _ _ _ _ _ _ _ 
 72
65
 73
2
 40
4.7624999999999993
 49
3.1749999999999998
 74
0
 49
-1.5874999999999999
 74
0
  0
LTYPE
  5
54
100
AcDbSymbolTableRecord
100
AcDbLinetypeTableRecord
  2
DOTX2
 70
0
  3
Dot (2x) .  .  .  .  .  .  .  .  .  .  .  .  .  .
 72
65
 73
2
 40
12.6999999999999993
 49
0.1
 74
0
 49
-12.5999999999999996
 74
0
  0
LTYPE
  5
55
100
AcDbSymbolTableRecord
100
AcDbLinetypeTableRecord
  2
ACAD_ISO09W100
 70
0
  3
ISO long-dash double-short-dash ____ __ __ ____
 72
65
 73
6
 40
45.0
 49
24.0
 74
0
 49
-3.0
 74
0
 49
6.0
 74
0
 49
-3.0
 74
0
 49
6.0
 74
0
 49
-3.0
 74
0
  0
LTYPE
  5
56
100
AcDbSymbolTableRecord
100
AcDbLinetypeTableRecord
  2
ACAD_ISO03W100
 70
0
  3
ISO dash space __    __    __    __    __    __
 72
65
 73
2
 40
30.0
 49
12.0
 74
0
 49
-18.0
 74
0
  0
ENDTAB
  0
TABLE
  2
LAYER
  5
2
100
AcDbSymbolTable
 70
9
  0
LAYER
  5
57
100
AcDbSymbolTableRecord
100
AcDbLayerTableRecord
  2
holes
 70
0
 62
30
420
16744192
  6
Continuous
370
0
390
F
  0
LAYER
  5
58
100
AcDbSymbolTableRecord
100
AcDbLayerTableRecord
  2
aux 2
 70
1
 62
6
420
16711935
  6
Continuous
370
0
390
F
  0
LAYER
  5
59
100
AcDbSymbolTableRecord
100
AcDbLayerTableRecord
  2
points
 70
0
 62
6
420
16711935
  6
Continuous
370
0
390
F
  0
LAYER
  5
5A
100
AcDbSymbolTableRecord
100
AcDbLayerTableRecord
  2
aux 3
 70
1
 62
3
420
65280
  6
Continuous
370
0
390
F
  0
LAYER
  5
5B
100
AcDbSymbolTableRecord
100
AcDbLayerTableRecord
  2
rastreador_nos2
 70
1
 62
1
420
16711680
  6
Continuous
370
0
390
F
  0
LAYER
  5
10
100
AcDbSymbolTableRecord
100
AcDbLayerTableRecord
  2
0
 70
1
 62
7
420
16777215
  6
Continuous
370
25
390
F
  0
LAYER
  5
5C
100
AcDbSymbolTableRecord
100
AcDbLayerTableRecord
  2
aux
 70
1
 62
2
420
16776960
  6
Continuous
370
0
390
F
  0
LAYER
  5
5D
100
AcDbSymbolTableRecord
100
AcDbLayerTableRecord
  2
rastreador_nos1
 70
1
 62
6
420
16711935
  6
Continuous
370
0
390
F
  0
LAYER
  5
5E
100
AcDbSymbolTableRecord
100
AcDbLayerTableRecord
  2
geometry
 70
0
 62
3
420
65280
  6
Continuous
370
0
390
F
  0
ENDTAB
  0
TABLE
  2
STYLE
  5
3
100
AcDbSymbolTable
 70
1
  0
STYLE
  5
5F
100
AcDbSymbolTableRecord
100
AcDbTextStyleTableRecord
  2
Standard
 70
0
 40
0.0
 41
1.0
 50
0.0
 71
0
 42
2.5
  3

  4

1001
ACAD
1000
txt
1071
0
  0
ENDTAB
  0
TABLE
  2
VIEW
  5
6
100
AcDbSymbolTable
 70
0
  0
ENDTAB
  0
TABLE
  2
UCS
  5
7
100
AcDbSymbolTable
 70
0
  0
ENDTAB
  0
TABLE
  2
APPID
  5
9
100
AcDbSymbolTable
 70
1
  0
APPID
  5
12
100
AcDbSymbolTableRecord
100
AcDbRegAppTableRecord
  2
ACAD
 70
0
  0
APPID
  5
60
100
AcDbSymbolTableRecord
100
AcDbRegAppTableRecord
  2
QCAD
 70
0
  0
ENDTAB
  0
TABLE
  2
DIMSTYLE
  5
A
100
AcDbSymbolTable
 70
1
100
AcDbDimStyleTable
 71
0
  0
DIMSTYLE
105
27
100
AcDbSymbolTableRecord
100
AcDbDimStyleTableRecord
  2
Standard
 41
2.5
 42
0.625
 43
3.75
 44
1.25
 70
0
 73
0
 74
0
 77
1
 78
8
140
2.5
141
2.5
143
0.03937007874016
147
0.625
171
3
172
1
271
2
272
2
274
3
278
44
283
0
284
8
340
5F
  0
ENDTAB
  0
TABLE
  2
BLOCK_RECORD
  5
1
100
AcDbSymbolTable
 70
1
  0
BLOCK_RECORD
  5
1F
100
AcDbSymbolTableRecord
100
AcDbBlockTableRecord
  2
*Model_Space
340
22
  0
BLOCK_RECORD
  5
1B
100
AcDbSymbolTableRecord
100
AcDbBlockTableRecord
  2
*Paper_Space
340
1E
  0
BLOCK_RECORD
  5
23
100
AcDbSymbolTableRecord
100
AcDbBlockTableRecord
  2
*Paper_Space0
340
26
  0
ENDTAB
  0
ENDSEC
  0
SECTION
  2
BLOCKS
  0
BLOCK
  5
20
100
AcDbEntity
  8
0
100
AcDbBlockBegin
  2
*Model_Space
 70
0
 10
0.0
 20
0.0
 30
0.0
  3
*Model_Space
  1

  0
ENDBLK
  5
21
100
AcDbEntity
  8
0
100
AcDbBlockEnd
  0
BLOCK
  5
1C
100
AcDbEntity
 67
1
  8
0
100
AcDbBlockBegin
  2
*Paper_Space
 70
0
 10
0.0
 20
0.0
 30
0.0
  3
*Paper_Space
  1

  0
ENDBLK
  5
1D
100
AcDbEntity
 67
1
  8
0
100
AcDbBlockEnd
  0
BLOCK
  5
24
100
AcDbEntity
  8
0
100
AcDbBlockBegin
  2
*Paper_Space0
 70
0
 10
0.0
 20
0.0
 30
0.0
  3
*Paper_Space0
  1

  0
ENDBLK
  5
25
100
AcDbEntity
  8
0
100
AcDbBlockEnd
  0
ENDSEC
  0
SECTION
  2
ENTITIES
  0
ARC
  5
61
100
AcDbEntity
  8
aux
 62
256
370
-1
 48
1.0
  6
BYLAYER
100
AcDbCircle
 10
0.0
 20
80.6226000000000056
 30
0.0
 40
20.0
100
AcDbArc
 50
0.0
 51
180.0
  0
CIRCLE
  5
62
100
AcDbEntity
  8
aux
 62
256
370
-1
 48
1.0
  6
BYLAYER
100
AcDbCircle
 10
0.0
 20
80.6226000000000056
 30
0.0
 40
10.0
  0
ARC
  5
63
100
AcDbEntity
  8
aux
 62
256
370
-1
 48
1.0
  6
BYLAYER
100
AcDbCircle
 10
-27.0406000000000013
 20
0.0
 30
0.0
 40
8.0406000000000013
100
AcDbArc
 50
0.0
 51
180.0
  0
LINE
  5
64
100
AcDbEntity
  8
holes
 62
256
370
-1
 48
1.0
  6
BYLAYER
100
AcDbLine
 10
10.0
 20
80.6226000000000056
 30
0.0
 11
9.899421590917008
 21
82.0373268871715737
 31
0.0
  0
LINE
  5
65
100
AcDbEntity
  8
holes
 62
256
370
-1
 48
1.0
  6
BYLAYER
100
AcDbLine
 10
-9.9999999999999947
 20
80.6225999999999772
 30
0.0
 11
-9.8994215909170098
 21
82.0373268871715595
 31
0.0
  0
LINE
  5
66
100
AcDbEntity
  8
holes
 62
256
370
-1
 48
1.0
  6
BYLAYER
100
AcDbLine
 10
-9.9999999999999947
 20
80.6225999999999772
 30
0.0
 11
-9.8994215909170098
 21
79.2078731128282243
 31
0.0
  0
LINE
  5
67
100
AcDbEntity
  8
holes
 62
256
370
-1
 48
1.0
  6
BYLAYER
100
AcDbLine
 10
10.0
 20
80.6226000000000056
 30
0.0
 11
9.899421590917008
 21
79.2078731128281817
 31
0.0
  0
LINE
  5
68
100
AcDbEntity
  8
rastreador_nos1
 62
256
370
-1
 48
1.0
  6
BYLAYER
100
AcDbLine
 10
9.9999788374961014
 20
80.6431730316221405
 30
0.0
 11
9.8994004284131165
 21
82.0578999187937086
 31
0.0
  0
LINE
  5
69
100
AcDbEntity
  8
rastreador_nos1
 62
256
370
-1
 48
1.0
  6
BYLAYER
100
AcDbLine
 10
-10.0000211625038844
 20
80.643173031622112
 30
0.0
 11
-9.8994427534208995
 21
82.0578999187936944
 31
0.0
  0
LINE
  5
6A
100
AcDbEntity
  8
holes
 62
256
370
-1
 48
1.0
  6
BYLAYER
100
AcDbLine
 10
9.899421590917008
 20
82.0373268871715737
 30
0.0
 11
9.6147187072134077
 21
83.3716333175792101
 31
0.0
  0
LINE
  5
6B
100
AcDbEntity
  8
holes
 62
256
370
-1
 48
1.0
  6
BYLAYER
100
AcDbLine
 10
-9.8994215909170098
 20
82.0373268871715595
 30
0.0
 11
-9.6147187072134077
 21
83.3716333175791817
 31
0.0
  0
LINE
  5
6C
100
AcDbEntity
  8
holes
 62
256
370
-1
 48
1.0
  6
BYLAYER
100
AcDbLine
 10
9.899421590917008
 20
79.2078731128281817
 30
0.0
 11
9.6147187072134059
 21
77.8735666824205737
 31
0.0
  0
LINE
  5
6D
100
AcDbEntity
  8
holes
 62
256
370
-1
 48
1.0
  6
BYLAYER
100
AcDbLine
 10
-9.8994215909170098
 20
79.2078731128282243
 30
0.0
 11
-9.6147187072134077
 21
77.8735666824206021
 31
0.0
  0
LINE
  5
6E
100
AcDbEntity
  8
rastreador_nos1
 62
256
370
-1
 48
1.0
  6
BYLAYER
100
AcDbLine
 10
9.8994004284131165
 20
82.0578999187937086
 30
0.0
 11
9.6146975447095144
 21
83.392206349201345
 31
0.0
  0
LINE
  5
6F
100
AcDbEntity
  8
rastreador_nos1
 62
256
370
-1
 48
1.0
  6
BYLAYER
100
AcDbLine
 10
-9.8994427534208995
 20
82.0578999187936944
 30
0.0
 11
-9.6147398697172974
 21
83.3922063492013166
 31
0.0
  0
LINE
  5
70
100
AcDbEntity
  8
holes
 62
256
370
-1
 48
1.0
  6
BYLAYER
100
AcDbLine
 10
9.6147187072134077
 20
83.3716333175792101
 30
0.0
 11
9.1330206761091812
 21
84.6954286644250374
 31
0.0
  0
LINE
  5
71
100
AcDbEntity
  8
holes
 62
256
370
-1
 48
1.0
  6
BYLAYER
100
AcDbLine
 10
-9.6147187072134077
 20
83.3716333175791817
 30
0.0
 11
-9.1330206761091848
 21
84.6954286644250232
 31
0.0
  0
LINE
  5
72
100
AcDbEntity
  8
holes
 62
256
370
-1
 48
1.0
  6
BYLAYER
100
AcDbLine
 10
9.6147187072134059
 20
77.8735666824205737
 30
0.0
 11
9.133020676109183
 21
76.5497713355747464
 31
0.0
  0
LINE
  5
73
100
AcDbEntity
  8
holes
 62
256
370
-1
 48
1.0
  6
BYLAYER
100
AcDbLine
 10
-9.6147187072134077
 20
77.8735666824206021
 30
0.0
 11
-9.1330206761091848
 21
76.5497713355747607
 31
0.0
  0
LINE
  5
74
100
AcDbEntity
  8
rastreador_nos1
 62
256
370
-1
 48
1.0
  6
BYLAYER
100
AcDbLine
 10
9.6146975447095144
 20
83.392206349201345
 30
0.0
 11
9.1329995136052844
 21
84.7160016960471722
 31
0.0
  0
LINE
  5
75
100
AcDbEntity
  8
rastreador_nos1
 62
256
370
-1
 48
1.0
  6
BYLAYER
100
AcDbLine
 10
-9.6147398697172974
 20
83.3922063492013166
 30
0.0
 11
-9.1330418386130816
 21
84.716001696047158
 31
0.0
  0
LINE
  5
76
100
AcDbEntity
  8
holes
 62
256
370
-1
 48
1.0
  6
BYLAYER
100
AcDbLine
 10
9.1330206761091812
 20
84.6954286644250374
 30
0.0
 11
8.4831380481391996
 21
85.9175380408285321
 31
0.0
  0
LINE
  5
77
100
AcDbEntity
  8
holes
 62
256
370
-1
 48
1.0
  6
BYLAYER
100
AcDbLine
 10
-9.1330206761091848
 20
84.6954286644250232
 30
0.0
 11
-8.4831380481392085
 21
85.9175380408285179
 31
0.0
  0
LINE
  5
78
100
AcDbEntity
  8
holes
 62
256
370
-1
 48
1.0
  6
BYLAYER
100
AcDbLine
 10
9.133020676109183
 20
76.5497713355747464
 30
0.0
 11
8.4831380481391996
 21
75.3276619591712517
 31
0.0
  0
LINE
  5
79
100
AcDbEntity
  8
holes
 62
256
370
-1
 48
1.0
  6
BYLAYER
100
AcDbLine
 10
-9.1330206761091848
 20
76.5497713355747607
 30
0.0
 11
-8.4831380481392085
 21
75.3276619591712659
 31
0.0
  0
LINE
  5
7A
100
AcDbEntity
  8
rastreador_nos1
 62
256
370
-1
 48
1.0
  6
BYLAYER
100
AcDbLine
 10
9.1329995136052844
 20
84.7160016960471722
 30
0.0
 11
8.4831168856353045
 21
85.9381110724506669
 31
0.0
  0
LINE
  5
7B
100
AcDbEntity
  8
rastreador_nos1
 62
256
370
-1
 48
1.0
  6
BYLAYER
100
AcDbLine
 10
-9.1330418386130816
 20
84.716001696047158
 30
0.0
 11
-8.4831592106430946
 21
85.9381110724506527
 31
0.0
  0
LINE
  5
7C
100
AcDbEntity
  8
holes
 62
256
370
-1
 48
1.0
  6
BYLAYER
100
AcDbLine
 10
8.4831380481391996
 20
85.9175380408285321
 30
0.0
 11
7.5204238091286415
 21
87.2137475276381906
 31
0.0
  0
LINE
  5
7D
100
AcDbEntity
  8
holes
 62
256
370
-1
 48
1.0
  6
BYLAYER
100
AcDbLine
 10
-8.4831380481392085
 20
85.9175380408285179
 30
0.0
 11
-7.5204238091286522
 21
87.2137475276381764
 31
0.0
  0
LINE
  5
7E
100
AcDbEntity
  8
holes
 62
256
370
-1
 48
1.0
  6
BYLAYER
100
AcDbLine
 10
8.4831380481391996
 20
75.3276619591712517
 30
0.0
 11
7.5204238091286406
 21
74.0314524723615932
 31
0.0
  0
LINE
  5
7F
100
AcDbEntity
  8
holes
 62
256
370
-1
 48
1.0
  6
BYLAYER
100
AcDbLine
 10
-8.4831380481392085
 20
75.3276619591712659
 30
0.0
 11
-7.520423809128653
 21
74.0314524723616074
 31
0.0
  0
LINE
  5
80
100
AcDbEntity
  8
rastreador_nos1
 62
256
370
-1
 48
1.0
  6
BYLAYER
100
AcDbLine
 10
8.4831168856353045
 20
85.9381110724506669
 30
0.0
 11
7.5204026466247456
 21
87.2343205592603255
 31
0.0
  0
LINE
  5
81
100
AcDbEntity
  8
rastreador_nos1
 62
256
370
-1
 48
1.0
  6
BYLAYER
100
AcDbLine
 10
-8.4831592106430946
 20
85.9381110724506527
 30
0.0
 11
-7.5204449716325428
 21
87.2343205592603113
 31
0.0
  0
LINE
  5
82
100
AcDbEntity
  8
holes
 62
256
370
-1
 48
1.0
  6
BYLAYER
100
AcDbLine
 10
7.5204238091286415
 20
87.2137475276381906
 30
0.0
 11
6.5533274691327801
 21
88.1760031457555442
 31
0.0
  0
LINE
  5
83
100
AcDbEntity
  8
holes
 62
256
370
-1
 48
1.0
  6
BYLAYER
100
AcDbLine
 10
-7.5204238091286522
 20
87.2137475276381764
 30
0.0
 11
-6.5533274691327907
 21
88.17600314575553
 31
0.0
  0
LINE
  5
84
100
AcDbEntity
  8
holes
 62
256
370
-1
 48
1.0
  6
BYLAYER
100
AcDbLine
 10
7.5204238091286406
 20
74.0314524723615932
 30
0.0
 11
6.5533274691327819
 21
73.0691968542442396
 31
0.0
  0
LINE
  5
85
100
AcDbEntity
  8
holes
 62
256
370
-1
 48
1.0
  6
BYLAYER
100
AcDbLine
 10
-7.520423809128653
 20
74.0314524723616074
 30
0.0
 11
-6.5533274691327907
 21
73.0691968542442538
 31
0.0
  0
LINE
  5
86
100
AcDbEntity
  8
rastreador_nos1
 62
256
370
-1
 48
1.0
  6
BYLAYER
100
AcDbLine
 10
7.5204026466247456
 20
87.2343205592603255
 30
0.0
 11
6.5533063066288832
 21
88.1965761773776791
 31
0.0
  0
LINE
  5
87
100
AcDbEntity
  8
rastreador_nos1
 62
256
370
-1
 48
1.0
  6
BYLAYER
100
AcDbLine
 10
-7.5204449716325428
 20
87.2343205592603113
 30
0.0
 11
-6.5533486316366805
 21
88.1965761773776649
 31
0.0
  0
LINE
  5
88
100
AcDbEntity
  8
holes
 62
256
370
-1
 48
1.0
  6
BYLAYER
100
AcDbLine
 10
6.5533274691327801
 20
88.1760031457555442
 30
0.0
 11
5.3652371767316644
 21
89.0614524123494675
 31
0.0
  0
LINE
  5
89
100
AcDbEntity
  8
holes
 62
256
370
-1
 48
1.0
  6
BYLAYER
100
AcDbLine
 10
-6.5533274691327907
 20
88.17600314575553
 30
0.0
 11
-5.365237176731676
 21
89.0614524123494533
 31
0.0
  0
LINE
  5
8A
100
AcDbEntity
  8
holes
 62
256
370
-1
 48
1.0
  6
BYLAYER
100
AcDbLine
 10
6.5533274691327819
 20
73.0691968542442396
 30
0.0
 11
5.3652371767316644
 21
72.1837475876503163
 31
0.0
  0
LINE
  5
8B
100
AcDbEntity
  8
holes
 62
256
370
-1
 48
1.0
  6
BYLAYER
100
AcDbLine
 10
-6.5533274691327907
 20
73.0691968542442538
 30
0.0
 11
-5.3652371767316751
 21
72.1837475876503305
 31
0.0
  0
LINE
  5
8C
100
AcDbEntity
  8
rastreador_nos1
 62
256
370
-1
 48
1.0
  6
BYLAYER
100
AcDbLine
 10
6.5533063066288832
 20
88.1965761773776791
 30
0.0
 11
5.3652160142277694
 21
89.0820254439716024
 31
0.0
  0
LINE
  5
8D
100
AcDbEntity
  8
rastreador_nos1
 62
256
370
-1
 48
1.0
  6
BYLAYER
100
AcDbLine
 10
-6.5533486316366805
 20
88.1965761773776649
 30
0.0
 11
-5.3652583392355666
 21
89.0820254439715882
 31
0.0
  0
LINE
  5
8E
100
AcDbEntity
  8
holes
 62
256
370
-1
 48
1.0
  6
BYLAYER
100
AcDbLine
 10
5.3652371767316644
 20
89.0614524123494675
 30
0.0
 11
4.2134961796764463
 21
89.6915828505655526
 31
0.0
  0
LINE
  5
8F
100
AcDbEntity
  8
holes
 62
256
370
-1
 48
1.0
  6
BYLAYER
100
AcDbLine
 10
-5.365237176731676
 20
89.0614524123494533
 30
0.0
 11
-4.2134961796764587
 21
89.6915828505655384
 31
0.0
  0
LINE
  5
90
100
AcDbEntity
  8
holes
 62
256
370
-1
 48
1.0
  6
BYLAYER
100
AcDbLine
 10
5.3652371767316644
 20
72.1837475876503163
 30
0.0
 11
4.2134961796764472
 21
71.5536171494342312
 31
0.0
  0
LINE
  5
91
100
AcDbEntity
  8
holes
 62
256
370
-1
 48
1.0
  6
BYLAYER
100
AcDbLine
 10
-5.3652371767316751
 20
72.1837475876503305
 30
0.0
 11
-4.2134961796764578
 21
71.5536171494342454
 31
0.0
  0
LINE
  5
92
100
AcDbEntity
  8
rastreador_nos1
 62
256
370
-1
 48
1.0
  6
BYLAYER
100
AcDbLine
 10
5.3652160142277694
 20
89.0820254439716024
 30
0.0
 11
4.2134750171725557
 21
89.7121558821876874
 31
0.0
  0
LINE
  5
93
100
AcDbEntity
  8
rastreador_nos1
 62
256
370
-1
 48
1.0
  6
BYLAYER
100
AcDbLine
 10
-5.3652583392355666
 20
89.0820254439715882
 30
0.0
 11
-4.2135173421803529
 21
89.7121558821876732
 31
0.0
  0
LINE
  5
94
100
AcDbEntity
  8
holes
 62
256
370
-1
 48
1.0
  6
BYLAYER
100
AcDbLine
 10
4.2134961796764463
 20
89.6915828505655526
 30
0.0
 11
2.5626476159067417
 21
90.2886662731375651
 31
0.0
  0
LINE
  5
95
100
AcDbEntity
  8
holes
 62
256
370
-1
 48
1.0
  6
BYLAYER
100
AcDbLine
 10
-4.2134961796764587
 20
89.6915828505655384
 30
0.0
 11
-2.5626476159067559
 21
90.2886662731375651
 31
0.0
  0
LINE
  5
96
100
AcDbEntity
  8
holes
 62
256
370
-1
 48
1.0
  6
BYLAYER
100
AcDbLine
 10
4.2134961796764472
 20
71.5536171494342312
 30
0.0
 11
2.5626476159067408
 21
70.9565337268622187
 31
0.0
  0
LINE
  5
97
100
AcDbEntity
  8
holes
 62
256
370
-1
 48
1.0
  6
BYLAYER
100
AcDbLine
 10
-4.2134961796764578
 20
71.5536171494342454
 30
0.0
 11
-2.5626476159067559
 21
70.9565337268622187
 31
0.0
  0
LINE
  5
98
100
AcDbEntity
  8
rastreador_nos1
 62
256
370
-1
 48
1.0
  6
BYLAYER
100
AcDbLine
 10
4.2134750171725557
 20
89.7121558821876874
 30
0.0
 11
2.5626264534028493
 21
90.3092393047597
 31
0.0
  0
LINE
  5
99
100
AcDbEntity
  8
rastreador_nos1
 62
256
370
-1
 48
1.0
  6
BYLAYER
100
AcDbLine
 10
-4.2135173421803529
 20
89.7121558821876732
 30
0.0
 11
-2.5626687784106537
 21
90.3092393047597
 31
0.0
  0
LINE
  5
9A
100
AcDbEntity
  8
holes
 62
256
370
-1
 48
1.0
  6
BYLAYER
100
AcDbLine
 10
2.5626476159067417
 20
90.2886662731375651
 30
0.0
 11
1.0170152245191293
 21
90.5707495783435235
 31
0.0
  0
LINE
  5
9B
100
AcDbEntity
  8
holes
 62
256
370
-1
 48
1.0
  6
BYLAYER
100
AcDbLine
 10
-2.5626476159067559
 20
90.2886662731375651
 30
0.0
 11
-1.0170152245191439
 21
90.5707495783435235
 31
0.0
  0
LINE
  5
9C
100
AcDbEntity
  8
holes
 62
256
370
-1
 48
1.0
  6
BYLAYER
100
AcDbLine
 10
2.5626476159067408
 20
70.9565337268622187
 30
0.0
 11
1.0170152245191293
 21
70.6744504216562603
 31
0.0
  0
LINE
  5
9D
100
AcDbEntity
  8
holes
 62
256
370
-1
 48
1.0
  6
BYLAYER
100
AcDbLine
 10
-2.5626476159067559
 20
70.9565337268622187
 30
0.0
 11
-1.0170152245191435
 21
70.6744504216562603
 31
0.0
  0
LINE
  5
9E
100
AcDbEntity
  8
rastreador_nos1
 62
256
370
-1
 48
1.0
  6
BYLAYER
100
AcDbLine
 10
2.5626264534028493
 20
90.3092393047597
 30
0.0
 11
1.016994062015236
 21
90.5913226099656583
 31
0.0
  0
LINE
  5
9F
100
AcDbEntity
  8
rastreador_nos1
 62
256
370
-1
 48
1.0
  6
BYLAYER
100
AcDbLine
 10
-2.5626687784106537
 20
90.3092393047597
 30
0.0
 11
-1.0170363870230403
 21
90.5913226099656583
 31
0.0
  0
LINE
  5
A0
100
AcDbEntity
  8
holes
 62
256
370
-1
 48
1.0
  6
BYLAYER
100
AcDbLine
 10
1.0170152245191293
 20
90.5707495783435235
 30
0.0
 11
0.0
 21
90.6226000000000056
 31
0.0
  0
LINE
  5
A1
100
AcDbEntity
  8
holes
 62
256
370
-1
 48
1.0
  6
BYLAYER
100
AcDbLine
 10
-1.0170152245191439
 20
90.5707495783435235
 30
0.0
 11
0.0
 21
90.6226000000000056
 31
0.0
  0
LINE
  5
A2
100
AcDbEntity
  8
holes
 62
256
370
-1
 48
1.0
  6
BYLAYER
100
AcDbLine
 10
1.0170152245191293
 20
70.6744504216562603
 30
0.0
 11
0.0
 21
70.6225999999997782
 31
0.0
  0
LINE
  5
A3
100
AcDbEntity
  8
holes
 62
256
370
-1
 48
1.0
  6
BYLAYER
100
AcDbLine
 10
-1.0170152245191435
 20
70.6744504216562603
 30
0.0
 11
0.0
 21
70.6225999999997782
 31
0.0
  0
LINE
  5
A4
100
AcDbEntity
  8
rastreador_nos1
 62
256
370
-1
 48
1.0
  6
BYLAYER
100
AcDbLine
 10
1.016994062015236
 20
90.5913226099656583
 30
0.0
 11
-0.0000211625038915
 21
90.6431730316221405
 31
0.0
  0
LINE
  5
A5
100
AcDbEntity
  8
rastreador_nos1
 62
256
370
-1
 48
1.0
  6
BYLAYER
100
AcDbLine
 10
-1.0170363870230403
 20
90.5913226099656583
 30
0.0
 11
-0.0000211625038915
 21
90.6431730316221405
 31
0.0
  0
LINE
  5
A6
100
AcDbEntity
  8
geometry
 62
256
370
-1
 48
1.0
  6
BYLAYER
100
AcDbLine
 10
19.0
 20
0.0
 30
0.0
 11
18.7368729277276174
 21
-3.1511256544587387
 31
0.0
  0
LINE
  5
A7
100
AcDbEntity
  8
geometry
 62
256
370
-1
 48
1.0
  6
BYLAYER
100
AcDbLine
 10
-18.9999999999999929
 20
0.0000000000000888
 30
0.0
 11
-18.7368729277276351
 21
-3.1511256544586566
 31
0.0
  0
LINE
  5
A8
100
AcDbEntity
  8
rastreador_nos2
 62
256
370
-1
 48
1.0
  6
BYLAYER
100
AcDbLine
 10
19.0
 20
0.0000000000000124
 30
0.0
 11
18.7368729277276174
 21
-3.1511256544587258
 31
0.0
  0
LINE
  5
A9
100
AcDbEntity
  8
rastreador_nos2
 62
256
370
-1
 48
1.0
  6
BYLAYER
100
AcDbLine
 10
-19.0
 20
0.0000000000001013
 30
0.0
 11
-18.7368729277276316
 21
-3.1511256544586441
 31
0.0
  0
LINE
  5
AA
100
AcDbEntity
  8
geometry
 62
256
370
-1
 48
1.0
  6
BYLAYER
100
AcDbLine
 10
18.7368729277276174
 20
-3.1511256544587387
 30
0.0
 11
18.214932160776776
 21
-5.4052054889985364
 31
0.0
  0
LINE
  5
AB
100
AcDbEntity
  8
geometry
 62
256
370
-1
 48
1.0
  6
BYLAYER
100
AcDbLine
 10
-18.7368729277276351
 20
-3.1511256544586566
 30
0.0
 11
-18.2149321607768009
 21
-5.40520548899846
 31
0.0
  0
LINE
  5
AC
100
AcDbEntity
  8
rastreador_nos2
 62
256
370
-1
 48
1.0
  6
BYLAYER
100
AcDbLine
 10
18.7368729277276174
 20
-3.1511256544587258
 30
0.0
 11
18.2149321607767689
 21
-5.4052054889985239
 31
0.0
  0
LINE
  5
AD
100
AcDbEntity
  8
rastreador_nos2
 62
256
370
-1
 48
1.0
  6
BYLAYER
100
AcDbLine
 10
-18.7368729277276316
 20
-3.1511256544586441
 30
0.0
 11
-18.2149321607768115
 21
-5.4052054889984475
 31
0.0
  0
LINE
  5
AE
100
AcDbEntity
  8
geometry
 62
256
370
-1
 48
1.0
  6
BYLAYER
100
AcDbLine
 10
18.214932160776776
 20
-5.4052054889985364
 30
0.0
 11
17.336956731121834
 21
-7.7736691017311275
 31
0.0
  0
LINE
  5
AF
100
AcDbEntity
  8
geometry
 62
256
370
-1
 48
1.0
  6
BYLAYER
100
AcDbLine
 10
-18.2149321607768009
 20
-5.40520548899846
 30
0.0
 11
-17.3369567311218695
 21
-7.7736691017310502
 31
0.0
  0
LINE
  5
B0
100
AcDbEntity
  8
rastreador_nos2
 62
256
370
-1
 48
1.0
  6
BYLAYER
100
AcDbLine
 10
18.2149321607767689
 20
-5.4052054889985239
 30
0.0
 11
17.3369567311218304
 21
-7.773669101731115
 31
0.0
  0
LINE
  5
B1
100
AcDbEntity
  8
rastreador_nos2
 62
256
370
-1
 48
1.0
  6
BYLAYER
100
AcDbLine
 10
-18.2149321607768115
 20
-5.4052054889984475
 30
0.0
 11
-17.3369567311218731
 21
-7.7736691017310378
 31
0.0
  0
LINE
  5
B2
100
AcDbEntity
  8
geometry
 62
256
370
-1
 48
1.0
  6
BYLAYER
100
AcDbLine
 10
17.336956731121834
 20
-7.7736691017311275
 30
0.0
 11
15.914793413928324
 21
-10.3787933109771338
 31
0.0
  0
LINE
  5
B3
100
AcDbEntity
  8
geometry
 62
256
370
-1
 48
1.0
  6
BYLAYER
100
AcDbLine
 10
-17.3369567311218695
 20
-7.7736691017310502
 30
0.0
 11
-15.9147934139283649
 21
-10.3787933109770556
 31
0.0
  0
LINE
  5
B4
100
AcDbEntity
  8
rastreador_nos2
 62
256
370
-1
 48
1.0
  6
BYLAYER
100
AcDbLine
 10
17.3369567311218304
 20
-7.773669101731115
 30
0.0
 11
15.9147934139283223
 21
-10.3787933109771213
 31
0.0
  0
LINE
  5
B5
100
AcDbEntity
  8
rastreador_nos2
 62
256
370
-1
 48
1.0
  6
BYLAYER
100
AcDbLine
 10
-17.3369567311218731
 20
-7.7736691017310378
 30
0.0
 11
-15.9147934139283649
 21
-10.3787933109770432
 31
0.0
  0
LINE
  5
B6
100
AcDbEntity
  8
geometry
 62
256
370
-1
 48
1.0
  6
BYLAYER
100
AcDbLine
 10
15.914793413928324
 20
-10.3787933109771338
 30
0.0
 11
14.2564585818984373
 21
-12.5599915884770574
 31
0.0
  0
LINE
  5
B7
100
AcDbEntity
  8
geometry
 62
256
370
-1
 48
1.0
  6
BYLAYER
100
AcDbLine
 10
-15.9147934139283649
 20
-10.3787933109770556
 30
0.0
 11
-14.2564585818984906
 21
-12.5599915884769899
 31
0.0
  0
LINE
  5
B8
100
AcDbEntity
  8
rastreador_nos2
 62
256
370
-1
 48
1.0
  6
BYLAYER
100
AcDbLine
 10
15.9147934139283223
 20
-10.3787933109771213
 30
0.0
 11
14.2564585818984284
 21
-12.559991588477045
 31
0.0
  0
LINE
  5
B9
100
AcDbEntity
  8
rastreador_nos2
 62
256
370
-1
 48
1.0
  6
BYLAYER
100
AcDbLine
 10
-15.9147934139283649
 20
-10.3787933109770432
 30
0.0
 11
-14.2564585818984995
 21
-12.5599915884769775
 31
0.0
  0
LINE
  5
BA
100
AcDbEntity
  8
geometry
 62
256
370
-1
 48
1.0
  6
BYLAYER
100
AcDbLine
 10
14.2564585818984373
 20
-12.5599915884770574
 30
0.0
 11
11.8958002658910544
 21
-14.815192743735274
 31
0.0
  0
LINE
  5
BB
100
AcDbEntity
  8
geometry
 62
256
370
-1
 48
1.0
  6
BYLAYER
100
AcDbLine
 10
-14.2564585818984906
 20
-12.5599915884769899
 30
0.0
 11
-11.8958002658911184
 21
-14.8151927437352207
 31
0.0
  0
LINE
  5
BC
100
AcDbEntity
  8
rastreador_nos2
 62
256
370
-1
 48
1.0
  6
BYLAYER
100
AcDbLine
 10
14.2564585818984284
 20
-12.559991588477045
 30
0.0
 11
11.8958002658910544
 21
-14.8151927437352615
 31
0.0
  0
LINE
  5
BD
100
AcDbEntity
  8
rastreador_nos2
 62
256
370
-1
 48
1.0
  6
BYLAYER
100
AcDbLine
 10
-14.2564585818984995
 20
-12.5599915884769775
 30
0.0
 11
-11.8958002658911255
 21
-14.8151927437352082
 31
0.0
  0
LINE
  5
BE
100
AcDbEntity
  8
geometry
 62
256
370
-1
 48
1.0
  6
BYLAYER
100
AcDbLine
 10
11.8958002658910544
 20
-14.815192743735274
 30
0.0
 11
9.3901115293566964
 21
-16.5174394343143405
 31
0.0
  0
LINE
  5
BF
100
AcDbEntity
  8
geometry
 62
256
370
-1
 48
1.0
  6
BYLAYER
100
AcDbLine
 10
-11.8958002658911184
 20
-14.8151927437352207
 30
0.0
 11
-9.3901115293567674
 21
-16.5174394343142978
 31
0.0
  0
LINE
  5
C0
100
AcDbEntity
  8
rastreador_nos2
 62
256
370
-1
 48
1.0
  6
BYLAYER
100
AcDbLine
 10
11.8958002658910544
 20
-14.8151927437352615
 30
0.0
 11
9.3901115293566875
 21
-16.5174394343143263
 31
0.0
  0
LINE
  5
C1
100
AcDbEntity
  8
rastreador_nos2
 62
256
370
-1
 48
1.0
  6
BYLAYER
100
AcDbLine
 10
-11.8958002658911255
 20
-14.8151927437352082
 30
0.0
 11
-9.3901115293567727
 21
-16.5174394343142836
 31
0.0
  0
LINE
  5
C2
100
AcDbEntity
  8
geometry
 62
256
370
-1
 48
1.0
  6
BYLAYER
100
AcDbLine
 10
9.3901115293566964
 20
-16.5174394343143405
 30
0.0
 11
6.6587362532194305
 21
-17.7949777046800861
 31
0.0
  0
LINE
  5
C3
100
AcDbEntity
  8
geometry
 62
256
370
-1
 48
1.0
  6
BYLAYER
100
AcDbLine
 10
-9.3901115293567674
 20
-16.5174394343142978
 30
0.0
 11
-6.6587362532195087
 21
-17.7949777046800577
 31
0.0
  0
LINE
  5
C4
100
AcDbEntity
  8
rastreador_nos2
 62
256
370
-1
 48
1.0
  6
BYLAYER
100
AcDbLine
 10
9.3901115293566875
 20
-16.5174394343143263
 30
0.0
 11
6.6587362532194305
 21
-17.7949777046800719
 31
0.0
  0
LINE
  5
C5
100
AcDbEntity
  8
rastreador_nos2
 62
256
370
-1
 48
1.0
  6
BYLAYER
100
AcDbLine
 10
-9.3901115293567727
 20
-16.5174394343142836
 30
0.0
 11
-6.6587362532195158
 21
-17.7949777046800435
 31
0.0
  0
LINE
  5
C6
100
AcDbEntity
  8
geometry
 62
256
370
-1
 48
1.0
  6
BYLAYER
100
AcDbLine
 10
6.6587362532194305
 20
-17.7949777046800861
 30
0.0
 11
3.8415294506206275
 21
-18.6075966067629075
 31
0.0
  0
LINE
  5
C7
100
AcDbEntity
  8
geometry
 62
256
370
-1
 48
1.0
  6
BYLAYER
100
AcDbLine
 10
-6.6587362532195087
 20
-17.7949777046800577
 30
0.0
 11
-3.8415294506207092
 21
-18.6075966067628897
 31
0.0
  0
LINE
  5
C8
100
AcDbEntity
  8
rastreador_nos2
 62
256
370
-1
 48
1.0
  6
BYLAYER
100
AcDbLine
 10
6.6587362532194305
 20
-17.7949777046800719
 30
0.0
 11
3.8415294506206266
 21
-18.6075966067628968
 31
0.0
  0
LINE
  5
C9
100
AcDbEntity
  8
rastreador_nos2
 62
256
370
-1
 48
1.0
  6
BYLAYER
100
AcDbLine
 10
-6.6587362532195158
 20
-17.7949777046800435
 30
0.0
 11
-3.8415294506207118
 21
-18.6075966067628755
 31
0.0
  0
LINE
  5
CA
100
AcDbEntity
  8
geometry
 62
256
370
-1
 48
1.0
  6
BYLAYER
100
AcDbLine
 10
3.8415294506206275
 20
-18.6075966067629075
 30
0.0
 11
1.5191988609194511
 21
-18.9391666876074858
 31
0.0
  0
LINE
  5
CB
100
AcDbEntity
  8
geometry
 62
256
370
-1
 48
1.0
  6
BYLAYER
100
AcDbLine
 10
-3.8415294506207092
 20
-18.6075966067628897
 30
0.0
 11
-1.5191988609195337
 21
-18.9391666876074822
 31
0.0
  0
LINE
  5
CC
100
AcDbEntity
  8
rastreador_nos2
 62
256
370
-1
 48
1.0
  6
BYLAYER
100
AcDbLine
 10
3.8415294506206266
 20
-18.6075966067628968
 30
0.0
 11
1.5191988609194453
 21
-18.9391666876074751
 31
0.0
  0
LINE
  5
CD
100
AcDbEntity
  8
rastreador_nos2
 62
256
370
-1
 48
1.0
  6
BYLAYER
100
AcDbLine
 10
-3.8415294506207118
 20
-18.6075966067628755
 30
0.0
 11
-1.5191988609195306
 21
-18.939166687607468
 31
0.0
  0
LINE
  5
CE
100
AcDbEntity
  8
geometry
 62
256
370
-1
 48
1.0
  6
BYLAYER
100
AcDbLine
 10
1.5191988609194511
 20
-18.9391666876074858
 30
0.0
 11
0.0
 21
-19.0
 31
0.0
  0
LINE
  5
CF
100
AcDbEntity
  8
geometry
 62
256
370
-1
 48
1.0
  6
BYLAYER
100
AcDbLine
 10
-1.5191988609195337
 20
-18.9391666876074822
 30
0.0
 11
0.0
 21
-19.0
 31
0.0
  0
LINE
  5
D0
100
AcDbEntity
  8
rastreador_nos2
 62
256
370
-1
 48
1.0
  6
BYLAYER
100
AcDbLine
 10
1.5191988609194453
 20
-18.9391666876074751
 30
0.0
 11
0.0
 21
-18.9999999999999858
 31
0.0
  0
LINE
  5
D1
100
AcDbEntity
  8
rastreador_nos2
 62
256
370
-1
 48
1.0
  6
BYLAYER
100
AcDbLine
 10
-1.5191988609195306
 20
-18.939166687607468
 30
0.0
 11
0.0
 21
-18.9999999999999858
 31
0.0
  0
LINE
  5
D2
100
AcDbEntity
  8
geometry
 62
256
370
-1
 48
1.0
  6
BYLAYER
100
AcDbLine
 10
-19.0
 20
0.0000000000001784
 30
0.0
 11
-19.0866460109283231
 21
1.1772273780925793
 31
0.0
  0
LINE
  5
D3
100
AcDbEntity
  8
geometry
 62
256
370
-1
 48
1.0
  6
BYLAYER
100
AcDbLine
 10
-35.0811999999999955
 20
0.0000000000002043
 30
0.0
 11
-34.9945539890716759
 21
1.1772273780926126
 31
0.0
  0
LINE
  5
D4
100
AcDbEntity
  8
geometry
 62
256
370
-1
 48
1.0
  6
BYLAYER
100
AcDbLine
 10
-19.0866460109283231
 20
1.1772273780925793
 30
0.0
 11
-19.2734074827966033
 21
2.0789345253517619
 31
0.0
  0
LINE
  5
D5
100
AcDbEntity
  8
geometry
 62
256
370
-1
 48
1.0
  6
BYLAYER
100
AcDbLine
 10
-34.9945539890716759
 20
1.1772273780926126
 30
0.0
 11
-34.8077925172033886
 21
2.0789345253517926
 31
0.0
  0
LINE
  5
D6
100
AcDbEntity
  8
geometry
 62
256
370
-1
 48
1.0
  6
BYLAYER
100
AcDbLine
 10
-19.2734074827966033
 20
2.0789345253517619
 30
0.0
 11
-19.6665579337519247
 21
3.2054253953576564
 31
0.0
  0
LINE
  5
D7
100
AcDbEntity
  8
geometry
 62
256
370
-1
 48
1.0
  6
BYLAYER
100
AcDbLine
 10
-34.8077925172033886
 20
2.0789345253517926
 30
0.0
 11
-34.4146420662480637
 21
3.2054253953576861
 31
0.0
  0
LINE
  5
D8
100
AcDbEntity
  8
geometry
 62
256
370
-1
 48
1.0
  6
BYLAYER
100
AcDbLine
 10
-19.6665579337519247
 20
3.2054253953576564
 30
0.0
 11
-20.3299595306583321
 21
4.4292835595876925
 31
0.0
  0
LINE
  5
D9
100
AcDbEntity
  8
geometry
 62
256
370
-1
 48
1.0
  6
BYLAYER
100
AcDbLine
 10
-34.4146420662480637
 20
3.2054253953576861
 30
0.0
 11
-33.7512404693416457
 21
4.4292835595877165
 31
0.0
  0
LINE
  5
DA
100
AcDbEntity
  8
geometry
 62
256
370
-1
 48
1.0
  6
BYLAYER
100
AcDbLine
 10
-20.3299595306583321
 20
4.4292835595876925
 30
0.0
 11
-21.0762497663016255
 21
5.3923811669597468
 31
0.0
  0
LINE
  5
DB
100
AcDbEntity
  8
geometry
 62
256
370
-1
 48
1.0
  6
BYLAYER
100
AcDbLine
 10
-33.7512404693416457
 20
4.4292835595877165
 30
0.0
 11
-33.0049502336983522
 21
5.3923811669597672
 31
0.0
  0
LINE
  5
DC
100
AcDbEntity
  8
geometry
 62
256
370
-1
 48
1.0
  6
BYLAYER
100
AcDbLine
 10
-21.0762497663016255
 20
5.3923811669597468
 30
0.0
 11
-22.0052149017630825
 21
6.2686637549364219
 31
0.0
  0
LINE
  5
DD
100
AcDbEntity
  8
geometry
 62
256
370
-1
 48
1.0
  6
BYLAYER
100
AcDbLine
 10
-33.0049502336983522
 20
5.3923811669597672
 30
0.0
 11
-32.0759850982368917
 21
6.2686637549364423
 31
0.0
  0
LINE
  5
DE
100
AcDbEntity
  8
geometry
 62
256
370
-1
 48
1.0
  6
BYLAYER
100
AcDbLine
 10
-22.0052149017630825
 20
6.2686637549364219
 30
0.0
 11
-23.005296067278838
 21
6.9546797575851844
 31
0.0
  0
LINE
  5
DF
100
AcDbEntity
  8
geometry
 62
256
370
-1
 48
1.0
  6
BYLAYER
100
AcDbLine
 10
-32.0759850982368917
 20
6.2686637549364423
 30
0.0
 11
-31.0759039327211326
 21
6.9546797575851969
 31
0.0
  0
LINE
  5
E0
100
AcDbEntity
  8
geometry
 62
256
370
-1
 48
1.0
  6
BYLAYER
100
AcDbLine
 10
-23.005296067278838
 20
6.9546797575851844
 30
0.0
 11
-24.1217446861238329
 21
7.4920979716403115
 31
0.0
  0
LINE
  5
E1
100
AcDbEntity
  8
geometry
 62
256
370
-1
 48
1.0
  6
BYLAYER
100
AcDbLine
 10
-31.0759039327211326
 20
6.9546797575851969
 30
0.0
 11
-29.9594553138761341
 21
7.4920979716403213
 31
0.0
  0
LINE
  5
E2
100
AcDbEntity
  8
geometry
 62
256
370
-1
 48
1.0
  6
BYLAYER
100
AcDbLine
 10
-24.1217446861238329
 20
7.4920979716403115
 30
0.0
 11
-25.0933575442346495
 21
7.801249590832545
 31
0.0
  0
LINE
  5
E3
100
AcDbEntity
  8
geometry
 62
256
370
-1
 48
1.0
  6
BYLAYER
100
AcDbLine
 10
-29.9594553138761341
 20
7.4920979716403213
 30
0.0
 11
-28.9878424557653176
 21
7.8012495908325512
 31
0.0
  0
LINE
  5
E4
100
AcDbEntity
  8
geometry
 62
256
370
-1
 48
1.0
  6
BYLAYER
100
AcDbLine
 10
-25.0933575442346495
 20
7.801249590832545
 30
0.0
 11
-26.0755546696505114
 21
7.9824768004906002
 31
0.0
  0
LINE
  5
E5
100
AcDbEntity
  8
geometry
 62
256
370
-1
 48
1.0
  6
BYLAYER
100
AcDbLine
 10
-28.9878424557653176
 20
7.8012495908325512
 30
0.0
 11
-28.0056453303494557
 21
7.9824768004906046
 31
0.0
  0
LINE
  5
E6
100
AcDbEntity
  8
geometry
 62
256
370
-1
 48
1.0
  6
BYLAYER
100
AcDbLine
 10
-26.0755546696505114
 20
7.9824768004906002
 30
0.0
 11
-27.0406000000000013
 21
8.0406000000000013
 31
0.0
  0
LINE
  5
E7
100
AcDbEntity
  8
geometry
 62
256
370
-1
 48
1.0
  6
BYLAYER
100
AcDbLine
 10
-28.0056453303494557
 20
7.9824768004906046
 30
0.0
 11
-27.0406000000000013
 21
8.0406000000000013
 31
0.0
  0
LINE
  5
E8
100
AcDbEntity
  8
geometry
 62
256
370
-1
 48
1.0
  6
BYLAYER
100
AcDbLine
 10
-35.0812000000000026
 20
0.0
 30
0.0
 11
-34.8450258051422779
 21
-3.3360470094257373
 31
0.0
  0
LINE
  5
E9
100
AcDbEntity
  8
geometry
 62
256
370
-1
 48
1.0
  6
BYLAYER
100
AcDbLine
 10
-34.8450258051422779
 20
-3.3360470094257373
 30
0.0
 11
-34.3150609222379543
 21
-7.0520038404227199
 31
0.0
  0
LINE
  5
EA
100
AcDbEntity
  8
geometry
 62
256
370
-1
 48
1.0
  6
BYLAYER
100
AcDbLine
 10
-34.3150609222379543
 20
-7.0520038404227199
 30
0.0
 11
-33.1885436812682499
 21
-11.8876385996463014
 31
0.0
  0
LINE
  5
EB
100
AcDbEntity
  8
geometry
 62
256
370
-1
 48
1.0
  6
BYLAYER
100
AcDbLine
 10
-33.1885436812682499
 20
-11.8876385996463014
 30
0.0
 11
-31.4641192842183628
 21
-16.8967199306867641
 31
0.0
  0
LINE
  5
EC
100
AcDbEntity
  8
geometry
 62
256
370
-1
 48
1.0
  6
BYLAYER
100
AcDbLine
 10
-31.4641192842183628
 20
-16.8967199306867641
 30
0.0
 11
-29.286320931993167
 21
-21.5695038539551618
 31
0.0
  0
LINE
  5
ED
100
AcDbEntity
  8
geometry
 62
256
370
-1
 48
1.0
  6
BYLAYER
100
AcDbLine
 10
-29.286320931993167
 20
-21.5695038539551618
 30
0.0
 11
-26.8530057850822601
 21
-25.6714024633913667
 31
0.0
  0
LINE
  5
EE
100
AcDbEntity
  8
geometry
 62
256
370
-1
 48
1.0
  6
BYLAYER
100
AcDbLine
 10
-26.8530057850822601
 20
-25.6714024633913667
 30
0.0
 11
-24.2332819745917902
 21
-29.2814749529069935
 31
0.0
  0
LINE
  5
EF
100
AcDbEntity
  8
geometry
 62
256
370
-1
 48
1.0
  6
BYLAYER
100
AcDbLine
 10
-24.2332819745917902
 20
-29.2814749529069935
 30
0.0
 11
-21.1451909377955047
 21
-32.8076840979809461
 31
0.0
  0
LINE
  5
F0
100
AcDbEntity
  8
geometry
 62
256
370
-1
 48
1.0
  6
BYLAYER
100
AcDbLine
 10
-21.1451909377955047
 20
-32.8076840979809461
 30
0.0
 11
-17.9775356369337942
 21
-35.8237982013500584
 31
0.0
  0
LINE
  5
F1
100
AcDbEntity
  8
geometry
 62
256
370
-1
 48
1.0
  6
BYLAYER
100
AcDbLine
 10
-17.9775356369337942
 20
-35.8237982013500584
 30
0.0
 11
-14.2120435160325158
 21
-38.8016275052810755
 31
0.0
  0
LINE
  5
F2
100
AcDbEntity
  8
geometry
 62
256
370
-1
 48
1.0
  6
BYLAYER
100
AcDbLine
 10
-14.2120435160325158
 20
-38.8016275052810755
 30
0.0
 11
-10.2211690286349626
 21
-41.3797641751418581
 31
0.0
  0
LINE
  5
F3
100
AcDbEntity
  8
geometry
 62
256
370
-1
 48
1.0
  6
BYLAYER
100
AcDbLine
 10
-10.2211690286349626
 20
-41.3797641751418581
 30
0.0
 11
-5.485358943940998
 21
-43.8021879238324487
 31
0.0
  0
LINE
  5
F4
100
AcDbEntity
  8
geometry
 62
256
370
-1
 48
1.0
  6
BYLAYER
100
AcDbLine
 10
-5.485358943940998
 20
-43.8021879238324487
 30
0.0
 11
-1.1152214434595864
 21
-45.5105725387822062
 31
0.0
  0
LINE
  5
F5
100
AcDbEntity
  8
geometry
 62
256
370
-1
 48
1.0
  6
BYLAYER
100
AcDbLine
 10
-1.1152214434595864
 20
-45.5105725387822062
 30
0.0
 11
3.85352890127505
 21
-46.9075663458348942
 31
0.0
  0
LINE
  5
F6
100
AcDbEntity
  8
geometry
 62
256
370
-1
 48
1.0
  6
BYLAYER
100
AcDbLine
 10
3.85352890127505
 20
-46.9075663458348942
 30
0.0
 11
9.1854356363944092
 21
-47.8136792557068731
 31
0.0
  0
LINE
  5
F7
100
AcDbEntity
  8
geometry
 62
256
370
-1
 48
1.0
  6
BYLAYER
100
AcDbLine
 10
9.1854356363944092
 20
-47.8136792557068731
 30
0.0
 11
14.2233978114831068
 21
-48.1351332139883112
 31
0.0
  0
LINE
  5
F8
100
AcDbEntity
  8
geometry
 62
256
370
-1
 48
1.0
  6
BYLAYER
100
AcDbLine
 10
14.2233978114831068
 20
-48.1351332139883112
 30
0.0
 11
19.7187465194309119
 21
-47.9052227411745548
 31
0.0
  0
LINE
  5
F9
100
AcDbEntity
  8
geometry
 62
256
370
-1
 48
1.0
  6
BYLAYER
100
AcDbLine
 10
19.7187465194309119
 20
-47.9052227411745548
 30
0.0
 11
24.8972304814670267
 21
-47.1266332145208509
 31
0.0
  0
LINE
  5
FA
100
AcDbEntity
  8
geometry
 62
256
370
-1
 48
1.0
  6
BYLAYER
100
AcDbLine
 10
24.8972304814670267
 20
-47.1266332145208509
 30
0.0
 11
29.8529822179041417
 21
-45.8462663849999004
 31
0.0
  0
LINE
  5
FB
100
AcDbEntity
  8
geometry
 62
256
370
-1
 48
1.0
  6
BYLAYER
100
AcDbLine
 10
29.8529822179041417
 20
-45.8462663849999004
 30
0.0
 11
35.5031147807892182
 21
-43.6901350478514345
 31
0.0
  0
LINE
  5
FC
100
AcDbEntity
  8
geometry
 62
256
370
-1
 48
1.0
  6
BYLAYER
100
AcDbLine
 10
35.5031147807892182
 20
-43.6901350478514345
 30
0.0
 11
39.9190430055701384
 21
-41.4206348705929344
 31
0.0
  0
LINE
  5
FD
100
AcDbEntity
  8
geometry
 62
256
370
-1
 48
1.0
  6
BYLAYER
100
AcDbLine
 10
39.9190430055701384
 20
-41.4206348705929344
 30
0.0
 11
43.9173486753883537
 21
-38.8467017951712705
 31
0.0
  0
LINE
  5
FE
100
AcDbEntity
  8
geometry
 62
256
370
-1
 48
1.0
  6
BYLAYER
100
AcDbLine
 10
43.9173486753883537
 20
-38.8467017951712705
 30
0.0
 11
47.7685556011863284
 21
-35.80406101821346
 31
0.0
  0
LINE
  5
FF
100
AcDbEntity
  8
geometry
 62
256
370
-1
 48
1.0
  6
BYLAYER
100
AcDbLine
 10
47.7685556011863284
 20
-35.80406101821346
 30
0.0
 11
51.7986612205137149
 21
-31.8637131531513802
 31
0.0
  0
LINE
  5
100
100
AcDbEntity
  8
geometry
 62
256
370
-1
 48
1.0
  6
BYLAYER
100
AcDbLine
 10
51.7986612205137149
 20
-31.8637131531513802
 30
0.0
 11
55.0679869276457481
 21
-27.8928740633489411
 31
0.0
  0
LINE
  5
101
100
AcDbEntity
  8
geometry
 62
256
370
-1
 48
1.0
  6
BYLAYER
100
AcDbLine
 10
55.0679869276457481
 20
-27.8928740633489411
 30
0.0
 11
58.0435629172301759
 21
-23.3836952254140193
 31
0.0
  0
LINE
  5
102
100
AcDbEntity
  8
geometry
 62
256
370
-1
 48
1.0
  6
BYLAYER
100
AcDbLine
 10
58.0435629172301759
 20
-23.3836952254140193
 30
0.0
 11
60.4039716664284541
 21
-18.8264617739342413
 31
0.0
  0
LINE
  5
103
100
AcDbEntity
  8
geometry
 62
256
370
-1
 48
1.0
  6
BYLAYER
100
AcDbLine
 10
60.4039716664284541
 20
-18.8264617739342413
 30
0.0
 11
62.1916128352811484
 21
-14.3261825147179565
 31
0.0
  0
LINE
  5
104
100
AcDbEntity
  8
geometry
 62
256
370
-1
 48
1.0
  6
BYLAYER
100
AcDbLine
 10
62.1916128352811484
 20
-14.3261825147179565
 30
0.0
 11
63.4595185889344933
 21
-9.9901718789912852
 31
0.0
  0
LINE
  5
105
100
AcDbEntity
  8
geometry
 62
256
370
-1
 48
1.0
  6
BYLAYER
100
AcDbLine
 10
63.4595185889344933
 20
-9.9901718789912852
 30
0.0
 11
64.301686208070933
 21
-5.749497166564435
 31
0.0
  0
LINE
  5
106
100
AcDbEntity
  8
geometry
 62
256
370
-1
 48
1.0
  6
BYLAYER
100
AcDbLine
 10
64.301686208070933
 20
-5.749497166564435
 30
0.0
 11
64.8805010977294074
 21
1.2523252346725746
 31
0.0
  0
LINE
  5
107
100
AcDbEntity
  8
geometry
 62
256
370
-1
 48
1.0
  6
BYLAYER
100
AcDbLine
 10
64.8805010977294074
 20
1.2523252346725746
 30
0.0
 11
64.5090107065569498
 21
7.9742682601151351
 31
0.0
  0
LINE
  5
108
100
AcDbEntity
  8
geometry
 62
256
370
-1
 48
1.0
  6
BYLAYER
100
AcDbLine
 10
64.5090107065569498
 20
7.9742682601151351
 30
0.0
 11
63.2178271116397141
 21
14.6613003747018169
 31
0.0
  0
LINE
  5
109
100
AcDbEntity
  8
geometry
 62
256
370
-1
 48
1.0
  6
BYLAYER
100
AcDbLine
 10
63.2178271116397141
 20
14.6613003747018169
 30
0.0
 11
61.4642519228728119
 21
20.0346234413787414
 31
0.0
  0
LINE
  5
10A
100
AcDbEntity
  8
geometry
 62
256
370
-1
 48
1.0
  6
BYLAYER
100
AcDbLine
 10
61.4642519228728119
 20
20.0346234413787414
 30
0.0
 11
58.6317925044095674
 21
26.0709966918922937
 31
0.0
  0
LINE
  5
10B
100
AcDbEntity
  8
geometry
 62
256
370
-1
 48
1.0
  6
BYLAYER
100
AcDbLine
 10
58.6317925044095674
 20
26.0709966918922937
 30
0.0
 11
55.6979876996458643
 21
30.7436219505135071
 31
0.0
  0
LINE
  5
10C
100
AcDbEntity
  8
geometry
 62
256
370
-1
 48
1.0
  6
BYLAYER
100
AcDbLine
 10
55.6979876996458643
 20
30.7436219505135071
 30
0.0
 11
51.9793283401911239
 21
35.3858852091925868
 31
0.0
  0
LINE
  5
10D
100
AcDbEntity
  8
geometry
 62
256
370
-1
 48
1.0
  6
BYLAYER
100
AcDbLine
 10
51.9793283401911239
 20
35.3858852091925868
 30
0.0
 11
47.7341123461648138
 21
39.5551051690329984
 31
0.0
  0
LINE
  5
10E
100
AcDbEntity
  8
geometry
 62
256
370
-1
 48
1.0
  6
BYLAYER
100
AcDbLine
 10
47.7341123461648138
 20
39.5551051690329984
 30
0.0
 11
43.631332577009303
 21
42.7701855108891138
 31
0.0
  0
LINE
  5
10F
100
AcDbEntity
  8
geometry
 62
256
370
-1
 48
1.0
  6
BYLAYER
100
AcDbLine
 10
43.631332577009303
 20
42.7701855108891138
 30
0.0
 11
39.822233059265784
 21
45.1974877487460702
 31
0.0
  0
LINE
  5
110
100
AcDbEntity
  8
geometry
 62
256
370
-1
 48
1.0
  6
BYLAYER
100
AcDbLine
 10
39.822233059265784
 20
45.1974877487460702
 30
0.0
 11
35.3922626584687094
 21
47.7887644035855175
 31
0.0
  0
LINE
  5
111
100
AcDbEntity
  8
geometry
 62
256
370
-1
 48
1.0
  6
BYLAYER
100
AcDbLine
 10
35.3922626584687094
 20
47.7887644035855175
 30
0.0
 11
31.7795731329008397
 21
50.5659016448014356
 31
0.0
  0
LINE
  5
112
100
AcDbEntity
  8
geometry
 62
256
370
-1
 48
1.0
  6
BYLAYER
100
AcDbLine
 10
31.7795731329008397
 20
50.5659016448014356
 30
0.0
 11
28.1296230702670655
 21
54.2869725899487108
 31
0.0
  0
LINE
  5
113
100
AcDbEntity
  8
geometry
 62
256
370
-1
 48
1.0
  6
BYLAYER
100
AcDbLine
 10
28.1296230702670655
 20
54.2869725899487108
 30
0.0
 11
25.5849011013030463
 21
57.7024076030794717
 31
0.0
  0
LINE
  5
114
100
AcDbEntity
  8
geometry
 62
256
370
-1
 48
1.0
  6
BYLAYER
100
AcDbLine
 10
25.5849011013030463
 20
57.7024076030794717
 30
0.0
 11
23.1002757775408725
 21
62.1844564841790586
 31
0.0
  0
LINE
  5
115
100
AcDbEntity
  8
geometry
 62
256
370
-1
 48
1.0
  6
BYLAYER
100
AcDbLine
 10
23.1002757775408725
 20
62.1844564841790586
 30
0.0
 11
21.111380618613854
 21
67.6342379985251085
 31
0.0
  0
LINE
  5
116
100
AcDbEntity
  8
geometry
 62
256
370
-1
 48
1.0
  6
BYLAYER
100
AcDbLine
 10
21.111380618613854
 20
67.6342379985251085
 30
0.0
 11
20.1631542223288989
 21
72.3590083782446527
 31
0.0
  0
LINE
  5
117
100
AcDbEntity
  8
geometry
 62
256
370
-1
 48
1.0
  6
BYLAYER
100
AcDbLine
 10
20.1631542223288989
 20
72.3590083782446527
 30
0.0
 11
19.8716000000000008
 21
76.8671999999999969
 31
0.0
  0
LINE
  5
118
100
AcDbEntity
  8
geometry
 62
256
370
-1
 48
1.0
  6
BYLAYER
100
AcDbLine
 10
19.8716000000000008
 20
76.8671999999999969
 30
0.0
 11
19.9999761921815384
 21
80.653459555596541
 31
0.0
  0
LINE
  5
119
100
AcDbEntity
  8
geometry
 62
256
370
-1
 48
1.0
  6
BYLAYER
100
AcDbLine
 10
19.999976192181542
 20
80.6534595555966263
 30
0.0
 11
19.8446320537116954
 21
83.1106873483056035
 31
0.0
  0
LINE
  5
11A
100
AcDbEntity
  8
geometry
 62
256
370
-1
 48
1.0
  6
BYLAYER
100
AcDbLine
 10
-19.9999761921815562
 20
80.6534595555966973
 30
0.0
 11
-19.8446320537116989
 21
83.1106873483056745
 31
0.0
  0
LINE
  5
11B
100
AcDbEntity
  8
geometry
 62
256
370
-1
 48
1.0
  6
BYLAYER
100
AcDbLine
 10
19.8446320537116954
 20
83.1106873483056035
 30
0.0
 11
19.3658126426219219
 21
85.6191288642081219
 31
0.0
  0
LINE
  5
11C
100
AcDbEntity
  8
geometry
 62
256
370
-1
 48
1.0
  6
BYLAYER
100
AcDbLine
 10
-19.8446320537116989
 20
83.1106873483056745
 30
0.0
 11
-19.3658126426219148
 21
85.6191288642081929
 31
0.0
  0
LINE
  5
11D
100
AcDbEntity
  8
geometry
 62
256
370
-1
 48
1.0
  6
BYLAYER
100
AcDbLine
 10
19.3658126426219219
 20
85.6191288642081219
 30
0.0
 11
18.3605037489383065
 21
88.5530414811044722
 31
0.0
  0
LINE
  5
11E
100
AcDbEntity
  8
geometry
 62
256
370
-1
 48
1.0
  6
BYLAYER
100
AcDbLine
 10
-19.3658126426219148
 20
85.6191288642081929
 30
0.0
 11
-18.3605037489382852
 21
88.553041481104529
 31
0.0
  0
LINE
  5
11F
100
AcDbEntity
  8
geometry
 62
256
370
-1
 48
1.0
  6
BYLAYER
100
AcDbLine
 10
18.3605037489383065
 20
88.5530414811044722
 30
0.0
 11
17.1837042887821703
 21
90.855894040321985
 31
0.0
  0
LINE
  5
120
100
AcDbEntity
  8
geometry
 62
256
370
-1
 48
1.0
  6
BYLAYER
100
AcDbLine
 10
-18.3605037489382852
 20
88.553041481104529
 30
0.0
 11
-17.1837042887821418
 21
90.8558940403220419
 31
0.0
  0
LINE
  5
121
100
AcDbEntity
  8
geometry
 62
256
370
-1
 48
1.0
  6
BYLAYER
100
AcDbLine
 10
17.1837042887821703
 20
90.855894040321985
 30
0.0
 11
15.8368876768190212
 21
92.8370581833095656
 31
0.0
  0
LINE
  5
122
100
AcDbEntity
  8
geometry
 62
256
370
-1
 48
1.0
  6
BYLAYER
100
AcDbLine
 10
-17.1837042887821418
 20
90.8558940403220419
 30
0.0
 11
-15.8368876768189786
 21
92.8370581833096224
 31
0.0
  0
LINE
  5
123
100
AcDbEntity
  8
geometry
 62
256
370
-1
 48
1.0
  6
BYLAYER
100
AcDbLine
 10
15.8368876768190212
 20
92.8370581833095656
 30
0.0
 11
14.1055449462034552
 21
94.8012318723152703
 31
0.0
  0
LINE
  5
124
100
AcDbEntity
  8
geometry
 62
256
370
-1
 48
1.0
  6
BYLAYER
100
AcDbLine
 10
-15.8368876768189786
 20
92.8370581833096224
 30
0.0
 11
-14.1055449462034073
 21
94.8012318723153129
 31
0.0
  0
LINE
  5
125
100
AcDbEntity
  8
geometry
 62
256
370
-1
 48
1.0
  6
BYLAYER
100
AcDbLine
 10
14.1055449462034552
 20
94.8012318723152703
 30
0.0
 11
12.2248608687993272
 21
96.4514589840992471
 31
0.0
  0
LINE
  5
126
100
AcDbEntity
  8
geometry
 62
256
370
-1
 48
1.0
  6
BYLAYER
100
AcDbLine
 10
-14.1055449462034073
 20
94.8012318723153129
 30
0.0
 11
-12.2248608687992739
 21
96.4514589840992898
 31
0.0
  0
LINE
  5
127
100
AcDbEntity
  8
geometry
 62
256
370
-1
 48
1.0
  6
BYLAYER
100
AcDbLine
 10
12.2248608687993272
 20
96.4514589840992471
 30
0.0
 11
9.3897868580676231
 21
98.2813627754625259
 31
0.0
  0
LINE
  5
128
100
AcDbEntity
  8
geometry
 62
256
370
-1
 48
1.0
  6
BYLAYER
100
AcDbLine
 10
-12.2248608687992739
 20
96.4514589840992898
 30
0.0
 11
-9.3897868580675645
 21
98.2813627754625685
 31
0.0
  0
LINE
  5
129
100
AcDbEntity
  8
geometry
 62
256
370
-1
 48
1.0
  6
BYLAYER
100
AcDbLine
 10
9.3897868580676231
 20
98.2813627754625259
 30
0.0
 11
6.5071013751013922
 21
99.5344384006990168
 31
0.0
  0
LINE
  5
12A
100
AcDbEntity
  8
geometry
 62
256
370
-1
 48
1.0
  6
BYLAYER
100
AcDbLine
 10
-9.3897868580675645
 20
98.2813627754625685
 30
0.0
 11
-6.5071013751013309
 21
99.5344384006990452
 31
0.0
  0
LINE
  5
12B
100
AcDbEntity
  8
geometry
 62
256
370
-1
 48
1.0
  6
BYLAYER
100
AcDbLine
 10
6.5071013751013922
 20
99.5344384006990168
 30
0.0
 11
4.0512440445575031
 21
100.207987963771302
 31
0.0
  0
LINE
  5
12C
100
AcDbEntity
  8
geometry
 62
256
370
-1
 48
1.0
  6
BYLAYER
100
AcDbLine
 10
-6.5071013751013309
 20
99.5344384006990452
 30
0.0
 11
-4.0512440445574383
 21
100.2079879637713162
 31
0.0
  0
LINE
  5
12D
100
AcDbEntity
  8
geometry
 62
256
370
-1
 48
1.0
  6
BYLAYER
100
AcDbLine
 10
4.0512440445575031
 20
100.207987963771302
 30
0.0
 11
1.7370659160362718
 21
100.5470222501769229
 31
0.0
  0
LINE
  5
12E
100
AcDbEntity
  8
geometry
 62
256
370
-1
 48
1.0
  6
BYLAYER
100
AcDbLine
 10
-4.0512440445574383
 20
100.2079879637713162
 30
0.0
 11
-1.7370659160362059
 21
100.5470222501769229
 31
0.0
  0
LINE
  5
12F
100
AcDbEntity
  8
geometry
 62
256
370
-1
 48
1.0
  6
BYLAYER
100
AcDbLine
 10
1.7370659160362718
 20
100.5470222501769229
 30
0.0
 11
0.0
 21
100.6226000000000056
 31
0.0
  0
LINE
  5
130
100
AcDbEntity
  8
geometry
 62
256
370
-1
 48
1.0
  6
BYLAYER
100
AcDbLine
 10
-1.7370659160362059
 20
100.5470222501769229
 30
0.0
 11
0.0
 21
100.6226000000000056
 31
0.0
  0
LINE
  5
131
100
AcDbEntity
  8
geometry
 62
256
370
-1
 48
1.0
  6
BYLAYER
100
AcDbLine
 10
-19.9999761921815384
 20
80.6534595555969958
 30
0.0
 11
-19.9174882092617196
 21
74.5514862199372175
 31
0.0
  0
LINE
  5
132
100
AcDbEntity
  8
geometry
 62
256
370
-1
 48
1.0
  6
BYLAYER
100
AcDbLine
 10
-19.9174882092617196
 20
74.5514862199372175
 30
0.0
 11
-19.4952230365910424
 21
69.5448669908138299
 31
0.0
  0
LINE
  5
133
100
AcDbEntity
  8
geometry
 62
256
370
-1
 48
1.0
  6
BYLAYER
100
AcDbLine
 10
-19.4952230365910424
 20
69.5448669908138299
 30
0.0
 11
-18.7463550016489151
 21
64.5018781976916529
 31
0.0
  0
LINE
  5
134
100
AcDbEntity
  8
geometry
 62
256
370
-1
 48
1.0
  6
BYLAYER
100
AcDbLine
 10
-18.7463550016489151
 20
64.5018781976916529
 30
0.0
 11
-17.5920968963829694
 21
59.1744371369969713
 31
0.0
  0
LINE
  5
135
100
AcDbEntity
  8
geometry
 62
256
370
-1
 48
1.0
  6
BYLAYER
100
AcDbLine
 10
-17.5920968963829694
 20
59.1744371369969713
 30
0.0
 11
-16.3497140055600525
 21
54.7869985098158807
 31
0.0
  0
LINE
  5
136
100
AcDbEntity
  8
geometry
 62
256
370
-1
 48
1.0
  6
BYLAYER
100
AcDbLine
 10
-16.3497140055600525
 20
54.7869985098158807
 30
0.0
 11
-14.6150611076767287
 21
49.8395126642811093
 31
0.0
  0
LINE
  5
137
100
AcDbEntity
  8
geometry
 62
256
370
-1
 48
1.0
  6
BYLAYER
100
AcDbLine
 10
-14.6150611076767287
 20
49.8395126642811093
 30
0.0
 11
-12.8688368677327549
 21
45.6878758629070703
 31
0.0
  0
LINE
  5
138
100
AcDbEntity
  8
geometry
 62
256
370
-1
 48
1.0
  6
BYLAYER
100
AcDbLine
 10
-12.8688368677327549
 20
45.6878758629070703
 30
0.0
 11
-10.1054501924777167
 21
40.1775098751389521
 31
0.0
  0
LINE
  5
139
100
AcDbEntity
  8
geometry
 62
256
370
-1
 48
1.0
  6
BYLAYER
100
AcDbLine
 10
-10.1054501924777167
 20
40.1775098751389521
 30
0.0
 11
-6.5415839245086973
 21
34.3156704709740055
 31
0.0
  0
LINE
  5
13A
100
AcDbEntity
  8
geometry
 62
256
370
-1
 48
1.0
  6
BYLAYER
100
AcDbLine
 10
-6.5415839245086973
 20
34.3156704709740055
 30
0.0
 11
-3.057687618435545
 21
29.5001894233288056
 31
0.0
  0
LINE
  5
13B
100
AcDbEntity
  8
geometry
 62
256
370
-1
 48
1.0
  6
BYLAYER
100
AcDbLine
 10
-3.057687618435545
 20
29.5001894233288056
 30
0.0
 11
0.6931165482036037
 21
25.0458934394672639
 31
0.0
  0
LINE
  5
13C
100
AcDbEntity
  8
geometry
 62
256
370
-1
 48
1.0
  6
BYLAYER
100
AcDbLine
 10
0.6931165482036037
 20
25.0458934394672639
 30
0.0
 11
5.7549351265517172
 21
19.9415562527117025
 31
0.0
  0
LINE
  5
13D
100
AcDbEntity
  8
geometry
 62
256
370
-1
 48
1.0
  6
BYLAYER
100
AcDbLine
 10
5.7549351265517172
 20
19.9415562527117025
 30
0.0
 11
10.416696344411049
 21
15.9643092308021419
 31
0.0
  0
LINE
  5
13E
100
AcDbEntity
  8
geometry
 62
256
370
-1
 48
1.0
  6
BYLAYER
100
AcDbLine
 10
10.416696344411049
 20
15.9643092308021419
 30
0.0
 11
13.9554328802942855
 21
12.8936376994082309
 31
0.0
  0
LINE
  5
13F
100
AcDbEntity
  8
geometry
 62
256
370
-1
 48
1.0
  6
BYLAYER
100
AcDbLine
 10
13.9554328802942855
 20
12.8936376994082309
 30
0.0
 11
16.345931500771222
 21
9.6855832747488737
 31
0.0
  0
LINE
  5
140
100
AcDbEntity
  8
geometry
 62
256
370
-1
 48
1.0
  6
BYLAYER
100
AcDbLine
 10
16.345931500771222
 20
9.6855832747488737
 30
0.0
 11
17.5798529721458188
 21
7.2075494779942915
 31
0.0
  0
LINE
  5
141
100
AcDbEntity
  8
geometry
 62
256
370
-1
 48
1.0
  6
BYLAYER
100
AcDbLine
 10
17.5798529721458188
 20
7.2075494779942915
 30
0.0
 11
18.4550556314549397
 21
4.5178448003338216
 31
0.0
  0
LINE
  5
142
100
AcDbEntity
  8
geometry
 62
256
370
-1
 48
1.0
  6
BYLAYER
100
AcDbLine
 10
18.4550556314549397
 20
4.5178448003338216
 30
0.0
 11
18.8728803966118939
 21
2.1941708081146407
 31
0.0
  0
LINE
  5
143
100
AcDbEntity
  8
geometry
 62
256
370
-1
 48
1.0
  6
BYLAYER
100
AcDbLine
 10
18.8728803966118939
 20
2.1941708081146407
 30
0.0
 11
19.0
 21
0.0
 31
0.0
  0
LINE
  5
144
100
AcDbEntity
  8
aux 2
 62
256
370
-1
 48
1.0
  6
BYLAYER
100
AcDbLine
 10
54.8716000000000008
 20
76.8671999999999969
 30
0.0
 11
24.2661512988090955
 21
59.8876723506462696
 31
0.0
  0
LINE
  5
145
100
AcDbEntity
  8
aux 2
 62
256
370
-1
 48
1.0
  6
BYLAYER
100
AcDbLine
 10
59.9712999999999923
 20
78.7683000000000106
 30
0.0
 11
73.5822649396403818
 21
-0.0648499019705628
 31
0.0
  0
LINE
  5
146
100
AcDbEntity
  8
aux 2
 62
256
370
-1
 48
1.0
  6
BYLAYER
100
AcDbLine
 10
0.0
 20
80.6226000000000056
 30
0.0
 11
0.0
 21
90.6226000000000056
 31
0.0
  0
LINE
  5
147
100
AcDbEntity
  8
aux 2
 62
256
370
-1
 48
1.0
  6
BYLAYER
100
AcDbLine
 10
0.0
 20
80.6226000000000056
 30
0.0
 11
-20.0
 21
80.6226000000000056
 31
0.0
  0
LINE
  5
148
100
AcDbEntity
  8
aux 2
 62
256
370
-1
 48
1.0
  6
BYLAYER
100
AcDbLine
 10
14.8841999999999963
 20
1.8605000000000018
 30
0.0
 11
41.4059062399713582
 21
-40.5258079085765175
 31
0.0
  0
LINE
  5
149
100
AcDbEntity
  8
aux 2
 62
256
370
-1
 48
1.0
  6
BYLAYER
100
AcDbLine
 10
0.0
 20
0.0
 30
0.0
 11
0.0
 21
-19.0
 31
0.0
  0
LINE
  5
14A
100
AcDbEntity
  8
aux 2
 62
256
370
-1
 48
1.0
  6
BYLAYER
100
AcDbLine
 10
-27.0406000000000013
 20
0.0
 30
0.0
 11
-27.0406000000000013
 21
8.0406000000000013
 31
0.0
  0
ARC
  5
14B
100
AcDbEntity
  8
aux
 62
256
370
-1
 48
1.0
  6
BYLAYER
100
AcDbCircle
 10
59.9681661613427863
 20
78.7579936802705731
 30
0.0
 40
79.9899015872360337
100
AcDbArc
 50
178.6642845149517598
 51
232.7135120237750812
  0
ARC
  5
14C
100
AcDbEntity
  8
aux
 62
256
370
-1
 48
1.0
  6
BYLAYER
100
AcDbCircle
 10
54.8716223858264911
 20
76.8671868365040467
 30
0.0
 40
34.99998246619149
100
AcDbArc
 50
176.0847760282740353
 51
241.9371149230632625
  0
ARC
  5
14D
100
AcDbEntity
  8
aux 3
 62
256
370
-1
 48
1.0
  6
BYLAYER
100
AcDbCircle
 10
54.871622385826015
 20
76.8671868365049136
 30
0.0
 40
34.9999824661924279
100
AcDbArc
 50
241.9371149230638594
 51
314.7514866359051666
  0
ARC
  5
14E
100
AcDbEntity
  8
aux 3
 62
256
370
-1
 48
1.0
  6
BYLAYER
100
AcDbCircle
 10
0.0000083994804994
 20
-0.0000048584580047
 30
0.0
 40
19.0000083994811213
100
AcDbArc
 50
52.7135410516795417
 51
179.9999853359560689
  0
ARC
  5
14F
100
AcDbEntity
  8
aux 3
 62
256
370
-1
 48
1.0
  6
BYLAYER
100
AcDbCircle
 10
-27.0406000000000013
 20
0.0000000000000124
 30
0.0
 40
8.0406000000000013
100
AcDbArc
 50
180.0
 51
360.0
  0
ARC
  5
150
100
AcDbEntity
  8
aux 3
 62
256
370
-1
 48
1.0
  6
BYLAYER
100
AcDbCircle
 10
0.0000000000000284
 20
80.6225999999998919
 30
0.0
 40
19.9999999999999574
100
AcDbArc
 50
180.0
 51
356.0847950247317613
  0
ARC
  5
151
100
AcDbEntity
  8
aux 3
 62
256
370
-1
 48
1.0
  6
BYLAYER
100
AcDbCircle
 10
14.8841999999999217
 20
1.8605000000001419
 30
0.0
 40
49.9999999999999147
100
AcDbArc
 50
61.9371149230632341
 51
182.1316501233568488
  0
ARC
  5
152
100
AcDbEntity
  8
aux
 62
256
370
-1
 48
1.0
  6
BYLAYER
100
AcDbCircle
 10
14.8841999999999945
 20
1.8605000000000489
 30
0.0
 40
49.9999999999999645
100
AcDbArc
 50
182.1324682458060806
 51
61.9371149230633549
  0
ARC
  5
153
100
AcDbEntity
  8
aux 3
 62
256
370
-1
 48
1.0
  6
BYLAYER
100
AcDbCircle
 10
59.9681661613423884
 20
78.757993680269422
 30
0.0
 40
79.9899015872350674
100
AcDbArc
 50
232.7135120237747401
 51
287.7869109829939021
  0
ARC
  5
154
100
AcDbEntity
  8
aux 3
 62
256
370
-1
 48
1.0
  6
BYLAYER
100
AcDbCircle
 10
59.9681661613356454
 20
78.7579936802714684
 30
0.0
 40
79.9899015872289141
100
AcDbArc
 50
164.3385312945656835
 51
178.6642845149522714
  0
ARC
  5
155
100
AcDbEntity
  8
aux 3
 62
256
370
-1
 48
1.0
  6
BYLAYER
100
AcDbCircle
 10
54.8716223858269956
 20
76.8671868365038193
 30
0.0
 40
34.9999824661920087
100
AcDbArc
 50
143.3443141903703975
 51
176.0847760282737511
  0
ARC
  5
156
100
AcDbEntity
  8
aux 3
 62
256
370
-1
 48
1.0
  6
BYLAYER
100
AcDbCircle
 10
0.0000081642731331
 20
-0.0000043837367473
 30
0.0
 40
19.0000081642737086
100
AcDbArc
 50
52.7135396201263404
 51
179.999986800979741
  0
ARC
  5
157
100
AcDbEntity
  8
aux
 62
256
370
-1
 48
1.0
  6
BYLAYER
100
AcDbCircle
 10
0.0000040069761552
 20
0.0000040069761565
 30
0.0
 40
19.0000040069765745
100
AcDbArc
 50
180.0000120741827061
 51
52.7135143173742762
  0
LINE
  5
158
100
AcDbEntity
  8
points
 62
256
370
-1
 48
1.0
  6
BYLAYER
100
AcDbLine
 10
-50.0
 20
110.0
 30
0.0
 11
80.0
 21
110.0
 31
0.0
  0
LINE
  5
159
100
AcDbEntity
  8
points
 62
256
370
-1
 48
1.0
  6
BYLAYER
100
AcDbLine
 10
-50.0
 20
-60.0
 30
0.0
 11
80.0
 21
-60.0
 31
0.0
  0
LINE
  5
15A
100
AcDbEntity
  8
points
 62
256
370
-1
 48
1.0
  6
BYLAYER
100
AcDbLine
 10
-50.0
 20
-60.0
 30
0.0
 11
-50.0
 21
110.0
 31
0.0
  0
LINE
  5
15B
100
AcDbEntity
  8
points
 62
256
370
-1
 48
1.0
  6
BYLAYER
100
AcDbLine
 10
80.0
 20
110.0
 30
0.0
 11
80.0
 21
-60.0
 31
0.0
  0
LINE
  5
15C
100
AcDbEntity
  8
points
 62
256
370
-1
 48
1.0
  6
BYLAYER
100
AcDbLine
 10
-45.0
 20
110.0
 30
0.0
 11
-45.0
 21
-60.0
 31
0.0
  0
LINE
  5
15D
100
AcDbEntity
  8
points
 62
256
370
-1
 48
1.0
  6
BYLAYER
100
AcDbLine
 10
-40.0
 20
110.0
 30
0.0
 11
-40.0
 21
-60.0
 31
0.0
  0
LINE
  5
15E
100
AcDbEntity
  8
points
 62
256
370
-1
 48
1.0
  6
BYLAYER
100
AcDbLine
 10
-35.0
 20
110.0
 30
0.0
 11
-35.0
 21
-60.0
 31
0.0
  0
LINE
  5
15F
100
AcDbEntity
  8
points
 62
256
370
-1
 48
1.0
  6
BYLAYER
100
AcDbLine
 10
-30.0
 20
110.0
 30
0.0
 11
-30.0
 21
-60.0
 31
0.0
  0
LINE
  5
160
100
AcDbEntity
  8
points
 62
256
370
-1
 48
1.0
  6
BYLAYER
100
AcDbLine
 10
-25.0
 20
110.0
 30
0.0
 11
-25.0
 21
-60.0
 31
0.0
  0
LINE
  5
161
100
AcDbEntity
  8
points
 62
256
370
-1
 48
1.0
  6
BYLAYER
100
AcDbLine
 10
-20.0
 20
110.0
 30
0.0
 11
-20.0
 21
-60.0
 31
0.0
  0
LINE
  5
162
100
AcDbEntity
  8
points
 62
256
370
-1
 48
1.0
  6
BYLAYER
100
AcDbLine
 10
-15.0
 20
110.0
 30
0.0
 11
-15.0
 21
-60.0
 31
0.0
  0
LINE
  5
163
100
AcDbEntity
  8
points
 62
256
370
-1
 48
1.0
  6
BYLAYER
100
AcDbLine
 10
-10.0
 20
110.0
 30
0.0
 11
-10.0
 21
-60.0
 31
0.0
  0
LINE
  5
164
100
AcDbEntity
  8
points
 62
256
370
-1
 48
1.0
  6
BYLAYER
100
AcDbLine
 10
-5.0
 20
110.0
 30
0.0
 11
-5.0
 21
-60.0
 31
0.0
  0
LINE
  5
165
100
AcDbEntity
  8
points
 62
256
370
-1
 48
1.0
  6
BYLAYER
100
AcDbLine
 10
0.0
 20
110.0
 30
0.0
 11
0.0
 21
-60.0
 31
0.0
  0
LINE
  5
166
100
AcDbEntity
  8
points
 62
256
370
-1
 48
1.0
  6
BYLAYER
100
AcDbLine
 10
5.0
 20
110.0
 30
0.0
 11
5.0
 21
-60.0
 31
0.0
  0
LINE
  5
167
100
AcDbEntity
  8
points
 62
256
370
-1
 48
1.0
  6
BYLAYER
100
AcDbLine
 10
10.0
 20
110.0
 30
0.0
 11
10.0
 21
-60.0
 31
0.0
  0
LINE
  5
168
100
AcDbEntity
  8
points
 62
256
370
-1
 48
1.0
  6
BYLAYER
100
AcDbLine
 10
15.0
 20
110.0
 30
0.0
 11
15.0
 21
-60.0
 31
0.0
  0
LINE
  5
169
100
AcDbEntity
  8
points
 62
256
370
-1
 48
1.0
  6
BYLAYER
100
AcDbLine
 10
20.0
 20
110.0
 30
0.0
 11
20.0
 21
-60.0
 31
0.0
  0
LINE
  5
16A
100
AcDbEntity
  8
points
 62
256
370
-1
 48
1.0
  6
BYLAYER
100
AcDbLine
 10
25.0
 20
110.0
 30
0.0
 11
25.0
 21
-60.0
 31
0.0
  0
LINE
  5
16B
100
AcDbEntity
  8
points
 62
256
370
-1
 48
1.0
  6
BYLAYER
100
AcDbLine
 10
30.0
 20
110.0
 30
0.0
 11
30.0
 21
-60.0
 31
0.0
  0
LINE
  5
16C
100
AcDbEntity
  8
points
 62
256
370
-1
 48
1.0
  6
BYLAYER
100
AcDbLine
 10
35.0
 20
110.0
 30
0.0
 11
35.0
 21
-60.0
 31
0.0
  0
LINE
  5
16D
100
AcDbEntity
  8
points
 62
256
370
-1
 48
1.0
  6
BYLAYER
100
AcDbLine
 10
40.0
 20
110.0
 30
0.0
 11
40.0
 21
-60.0
 31
0.0
  0
LINE
  5
16E
100
AcDbEntity
  8
points
 62
256
370
-1
 48
1.0
  6
BYLAYER
100
AcDbLine
 10
45.0
 20
110.0
 30
0.0
 11
45.0
 21
-60.0
 31
0.0
  0
LINE
  5
16F
100
AcDbEntity
  8
points
 62
256
370
-1
 48
1.0
  6
BYLAYER
100
AcDbLine
 10
50.0
 20
110.0
 30
0.0
 11
50.0
 21
-60.0
 31
0.0
  0
LINE
  5
170
100
AcDbEntity
  8
points
 62
256
370
-1
 48
1.0
  6
BYLAYER
100
AcDbLine
 10
55.0
 20
110.0
 30
0.0
 11
55.0
 21
-60.0
 31
0.0
  0
LINE
  5
171
100
AcDbEntity
  8
points
 62
256
370
-1
 48
1.0
  6
BYLAYER
100
AcDbLine
 10
60.0
 20
110.0
 30
0.0
 11
60.0
 21
-60.0
 31
0.0
  0
LINE
  5
172
100
AcDbEntity
  8
points
 62
256
370
-1
 48
1.0
  6
BYLAYER
100
AcDbLine
 10
65.0
 20
110.0
 30
0.0
 11
65.0
 21
-60.0
 31
0.0
  0
LINE
  5
173
100
AcDbEntity
  8
points
 62
256
370
-1
 48
1.0
  6
BYLAYER
100
AcDbLine
 10
70.0
 20
110.0
 30
0.0
 11
70.0
 21
-60.0
 31
0.0
  0
LINE
  5
174
100
AcDbEntity
  8
points
 62
256
370
-1
 48
1.0
  6
BYLAYER
100
AcDbLine
 10
75.0
 20
110.0
 30
0.0
 11
75.0
 21
-60.0
 31
0.0
  0
LINE
  5
175
100
AcDbEntity
  8
points
 62
256
370
-1
 48
1.0
  6
BYLAYER
100
AcDbLine
 10
80.0
 20
110.0
 30
0.0
 11
80.0
 21
-60.0
 31
0.0
  0
LINE
  5
176
100
AcDbEntity
  8
points
 62
256
370
-1
 48
1.0
  6
BYLAYER
100
AcDbLine
 10
-50.0
 20
105.0
 30
0.0
 11
80.0
 21
105.0
 31
0.0
  0
LINE
  5
177
100
AcDbEntity
  8
points
 62
256
370
-1
 48
1.0
  6
BYLAYER
100
AcDbLine
 10
-50.0
 20
100.0
 30
0.0
 11
80.0
 21
100.0
 31
0.0
  0
LINE
  5
178
100
AcDbEntity
  8
points
 62
256
370
-1
 48
1.0
  6
BYLAYER
100
AcDbLine
 10
-50.0
 20
95.0
 30
0.0
 11
80.0
 21
95.0
 31
0.0
  0
LINE
  5
179
100
AcDbEntity
  8
points
 62
256
370
-1
 48
1.0
  6
BYLAYER
100
AcDbLine
 10
-50.0
 20
90.0
 30
0.0
 11
80.0
 21
90.0
 31
0.0
  0
LINE
  5
17A
100
AcDbEntity
  8
points
 62
256
370
-1
 48
1.0
  6
BYLAYER
100
AcDbLine
 10
-50.0
 20
85.0
 30
0.0
 11
80.0
 21
85.0
 31
0.0
  0
LINE
  5
17B
100
AcDbEntity
  8
points
 62
256
370
-1
 48
1.0
  6
BYLAYER
100
AcDbLine
 10
-50.0
 20
80.0
 30
0.0
 11
80.0
 21
80.0
 31
0.0
  0
LINE
  5
17C
100
AcDbEntity
  8
points
 62
256
370
-1
 48
1.0
  6
BYLAYER
100
AcDbLine
 10
-50.0
 20
75.0
 30
0.0
 11
80.0
 21
75.0
 31
0.0
  0
LINE
  5
17D
100
AcDbEntity
  8
points
 62
256
370
-1
 48
1.0
  6
BYLAYER
100
AcDbLine
 10
-50.0
 20
70.0
 30
0.0
 11
80.0
 21
70.0
 31
0.0
  0
LINE
  5
17E
100
AcDbEntity
  8
points
 62
256
370
-1
 48
1.0
  6
BYLAYER
100
AcDbLine
 10
-50.0
 20
65.0
 30
0.0
 11
80.0
 21
65.0
 31
0.0
  0
LINE
  5
17F
100
AcDbEntity
  8
points
 62
256
370
-1
 48
1.0
  6
BYLAYER
100
AcDbLine
 10
-50.0
 20
60.0
 30
0.0
 11
80.0
 21
60.0
 31
0.0
  0
LINE
  5
180
100
AcDbEntity
  8
points
 62
256
370
-1
 48
1.0
  6
BYLAYER
100
AcDbLine
 10
-50.0
 20
55.0
 30
0.0
 11
80.0
 21
55.0
 31
0.0
  0
LINE
  5
181
100
AcDbEntity
  8
points
 62
256
370
-1
 48
1.0
  6
BYLAYER
100
AcDbLine
 10
-50.0
 20
50.0
 30
0.0
 11
80.0
 21
50.0
 31
0.0
  0
LINE
  5
182
100
AcDbEntity
  8
points
 62
256
370
-1
 48
1.0
  6
BYLAYER
100
AcDbLine
 10
-50.0
 20
45.0
 30
0.0
 11
80.0
 21
45.0
 31
0.0
  0
LINE
  5
183
100
AcDbEntity
  8
points
 62
256
370
-1
 48
1.0
  6
BYLAYER
100
AcDbLine
 10
-50.0
 20
40.0
 30
0.0
 11
80.0
 21
40.0
 31
0.0
  0
LINE
  5
184
100
AcDbEntity
  8
points
 62
256
370
-1
 48
1.0
  6
BYLAYER
100
AcDbLine
 10
-50.0
 20
35.0
 30
0.0
 11
80.0
 21
35.0
 31
0.0
  0
LINE
  5
185
100
AcDbEntity
  8
points
 62
256
370
-1
 48
1.0
  6
BYLAYER
100
AcDbLine
 10
-50.0
 20
30.0
 30
0.0
 11
80.0
 21
30.0
 31
0.0
  0
LINE
  5
186
100
AcDbEntity
  8
points
 62
256
370
-1
 48
1.0
  6
BYLAYER
100
AcDbLine
 10
-50.0
 20
25.0
 30
0.0
 11
80.0
 21
25.0
 31
0.0
  0
LINE
  5
187
100
AcDbEntity
  8
points
 62
256
370
-1
 48
1.0
  6
BYLAYER
100
AcDbLine
 10
-50.0
 20
20.0
 30
0.0
 11
80.0
 21
20.0
 31
0.0
  0
LINE
  5
188
100
AcDbEntity
  8
points
 62
256
370
-1
 48
1.0
  6
BYLAYER
100
AcDbLine
 10
-50.0
 20
15.0
 30
0.0
 11
80.0
 21
15.0
 31
0.0
  0
LINE
  5
189
100
AcDbEntity
  8
points
 62
256
370
-1
 48
1.0
  6
BYLAYER
100
AcDbLine
 10
-50.0
 20
10.0
 30
0.0
 11
80.0
 21
10.0
 31
0.0
  0
LINE
  5
18A
100
AcDbEntity
  8
points
 62
256
370
-1
 48
1.0
  6
BYLAYER
100
AcDbLine
 10
-50.0
 20
5.0
 30
0.0
 11
80.0
 21
5.0
 31
0.0
  0
LINE
  5
18B
100
AcDbEntity
  8
points
 62
256
370
-1
 48
1.0
  6
BYLAYER
100
AcDbLine
 10
-50.0
 20
0.0
 30
0.0
 11
80.0
 21
0.0
 31
0.0
  0
LINE
  5
18C
100
AcDbEntity
  8
points
 62
256
370
-1
 48
1.0
  6
BYLAYER
100
AcDbLine
 10
-50.0
 20
-5.0
 30
0.0
 11
80.0
 21
-5.0
 31
0.0
  0
LINE
  5
18D
100
AcDbEntity
  8
points
 62
256
370
-1
 48
1.0
  6
BYLAYER
100
AcDbLine
 10
-50.0
 20
-10.0
 30
0.0
 11
80.0
 21
-10.0
 31
0.0
  0
LINE
  5
18E
100
AcDbEntity
  8
points
 62
256
370
-1
 48
1.0
  6
BYLAYER
100
AcDbLine
 10
-50.0
 20
-15.0
 30
0.0
 11
80.0
 21
-15.0
 31
0.0
  0
LINE
  5
18F
100
AcDbEntity
  8
points
 62
256
370
-1
 48
1.0
  6
BYLAYER
100
AcDbLine
 10
-50.0
 20
-20.0
 30
0.0
 11
80.0
 21
-20.0
 31
0.0
  0
LINE
  5
190
100
AcDbEntity
  8
points
 62
256
370
-1
 48
1.0
  6
BYLAYER
100
AcDbLine
 10
-50.0
 20
-25.0
 30
0.0
 11
80.0
 21
-25.0
 31
0.0
  0
LINE
  5
191
100
AcDbEntity
  8
points
 62
256
370
-1
 48
1.0
  6
BYLAYER
100
AcDbLine
 10
-50.0
 20
-30.0
 30
0.0
 11
80.0
 21
-30.0
 31
0.0
  0
LINE
  5
192
100
AcDbEntity
  8
points
 62
256
370
-1
 48
1.0
  6
BYLAYER
100
AcDbLine
 10
-50.0
 20
-35.0
 30
0.0
 11
80.0
 21
-35.0
 31
0.0
  0
LINE
  5
193
100
AcDbEntity
  8
points
 62
256
370
-1
 48
1.0
  6
BYLAYER
100
AcDbLine
 10
-50.0
 20
-40.0
 30
0.0
 11
80.0
 21
-40.0
 31
0.0
  0
LINE
  5
194
100
AcDbEntity
  8
points
 62
256
370
-1
 48
1.0
  6
BYLAYER
100
AcDbLine
 10
-50.0
 20
-45.0
 30
0.0
 11
80.0
 21
-45.0
 31
0.0
  0
LINE
  5
195
100
AcDbEntity
  8
points
 62
256
370
-1
 48
1.0
  6
BYLAYER
100
AcDbLine
 10
-50.0
 20
-50.0
 30
0.0
 11
80.0
 21
-50.0
 31
0.0
  0
LINE
  5
196
100
AcDbEntity
  8
points
 62
256
370
-1
 48
1.0
  6
BYLAYER
100
AcDbLine
 10
-50.0
 20
-55.0
 30
0.0
 11
80.0
 21
-55.0
 31
0.0
  0
ENDSEC
  0
SECTION
  2
OBJECTS
  0
DICTIONARY
  5
C
100
AcDbDictionary
280
0
281
1
  3
ACAD_GROUP
350
D
  3
ACAD_LAYOUT
350
1A
  3
ACAD_MLINESTYLE
350
17
  3
ACAD_PLOTSETTINGS
350
19
  3
ACAD_PLOTSTYLENAME
350
E
  3
AcDbVariableDictionary
350
197
  3
QCAD_OBJECTS
350
198
  0
DICTIONARY
  5
D
100
AcDbDictionary
280
0
281
1
  0
ACDBDICTIONARYWDFLT
  5
E
100
AcDbDictionary
281
1
  3
Normal
350
F
100
AcDbDictionaryWithDefault
340
F
  0
ACDBPLACEHOLDER
  5
F
  0
DICTIONARY
  5
17
100
AcDbDictionary
280
0
281
1
  3
Standard
350
18
  0
MLINESTYLE
  5
18
100
AcDbMlineStyle
  2
STANDARD
 70
0
  3

 62
256
 51
90.0
 52
90.0
 71
2
 49
0.5
 62
256
  6
BYLAYER
 49
-0.5
 62
256
  6
BYLAYER
  0
DICTIONARY
  5
19
100
AcDbDictionary
280
0
281
1
  0
DICTIONARY
  5
1A
100
AcDbDictionary
281
1
  3
Layout1
350
1E
  3
Layout2
350
26
  3
Model
350
22
  0
LAYOUT
  5
1E
100
AcDbPlotSettings
  1

  2
none_device
  4

  6

 40
0.0
 41
0.0
 42
0.0
 43
0.0
 44
0.0
 45
0.0
 46
0.0
 47
0.0
 48
0.0
 49
0.0
140
0.0
141
0.0
142
1.0
143
1.0
 70
688
 72
0
 73
0
 74
5
  7

 75
16
147
1.0
148
0.0
149
0.0
100
AcDbLayout
  1
Layout1
 70
1
 71
1
 10
0.0
 20
0.0
 11
420.0
 21
297.0
 12
0.0
 22
0.0
 32
0.0
 14
100000000000000000000.0
 24
100000000000000000000.0
 34
100000000000000000000.0
 15
-100000000000000000000.0
 25
-100000000000000000000.0
 35
-100000000000000000000.0
146
0.0
 13
0.0
 23
0.0
 33
0.0
 16
1.0
 26
0.0
 36
0.0
 17
0.0
 27
1.0
 37
0.0
 76
0
330
1B
  0
LAYOUT
  5
22
100
AcDbPlotSettings
  1

  2
none_device
  4

  6

 40
0.0
 41
0.0
 42
0.0
 43
0.0
 44
0.0
 45
0.0
 46
0.0
 47
0.0
 48
0.0
 49
0.0
140
0.0
141
0.0
142
1.0
143
1.0
 70
1712
 72
0
 73
0
 74
0
  7

 75
0
147
1.0
148
0.0
149
0.0
100
AcDbLayout
  1
Model
 70
1
 71
0
 10
0.0
 20
0.0
 11
12.0
 21
9.0
 12
0.0
 22
0.0
 32
0.0
 14
0.0
 24
0.0
 34
0.0
 15
0.0
 25
0.0
 35
0.0
146
0.0
 13
0.0
 23
0.0
 33
0.0
 16
1.0
 26
0.0
 36
0.0
 17
0.0
 27
1.0
 37
0.0
 76
0
330
1F
  0
LAYOUT
  5
26
100
AcDbPlotSettings
  1

  2
none_device
  4

  6

 40
0.0
 41
0.0
 42
0.0
 43
0.0
 44
0.0
 45
0.0
 46
0.0
 47
0.0
 48
0.0
 49
0.0
140
0.0
141
0.0
142
1.0
143
1.0
 70
688
 72
0
 73
0
 74
5
  7

 75
16
147
1.0
148
0.0
149
0.0
100
AcDbLayout
  1
Layout2
 70
1
 71
2
 10
0.0
 20
0.0
 11
12.0
 21
9.0
 12
0.0
 22
0.0
 32
0.0
 14
0.0
 24
0.0
 34
0.0
 15
0.0
 25
0.0
 35
0.0
146
0.0
 13
0.0
 23
0.0
 33
0.0
 16
1.0
 26
0.0
 36
0.0
 17
0.0
 27
1.0
 37
0.0
 76
0
330
23
  0
DICTIONARY
  5
197
100
AcDbDictionary
281
1
  3
DIMASSOC
350
19A
  3
HIDETEXT
350
199
  0
DICTIONARYVAR
  5
199
100
DictionaryVariables
280
0
  1
2
  0
DICTIONARYVAR
  5
19A
100
DictionaryVariables
280
0
  1
1
  0
DICTIONARY
  5
198
100
AcDbDictionary
281
1
  3
ColorSettings/BackgroundColor
350
19B
  3
ColorSettings/ColorMode
350
19C
  3
Grid/DisplayGrid00
350
19D
  3
Grid/DisplayGrid01
350
19E
  3
Grid/DisplayGrid02
350
19F
  3
Grid/DisplayGrid03
350
1A0
  3
Grid/GridSpacingX00
350
1A1
  3
Grid/GridSpacingX01
350
1A2
  3
Grid/GridSpacingX02
350
1A3
  3
Grid/GridSpacingX03
350
1A4
  3
Grid/GridSpacingY00
350
1A5
  3
Grid/GridSpacingY01
350
1A6
  3
Grid/GridSpacingY02
350
1A7
  3
Grid/GridSpacingY03
350
1A8
  3
Grid/IsometricGrid00
350
1A9
  3
Grid/IsometricGrid01
350
1AA
  3
Grid/IsometricGrid02
350
1AB
  3
Grid/IsometricGrid03
350
1AC
  3
Grid/IsometricProjection00
350
1AD
  3
Grid/IsometricProjection01
350
1AE
  3
Grid/IsometricProjection02
350
1AF
  3
Grid/IsometricProjection03
350
1B0
  3
Grid/MetaGridSpacingX00
350
1B1
  3
Grid/MetaGridSpacingX01
350
1B2
  3
Grid/MetaGridSpacingX02
350
1B3
  3
Grid/MetaGridSpacingX03
350
1B4
  3
Grid/MetaGridSpacingY00
350
1B5
  3
Grid/MetaGridSpacingY01
350
1B6
  3
Grid/MetaGridSpacingY02
350
1B7
  3
Grid/MetaGridSpacingY03
350
1B8
  3
MultiPageSettings/Columns
350
1B9
  3
MultiPageSettings/GlueMarginsBottom
350
1BA
  3
MultiPageSettings/GlueMarginsLeft
350
1BB
  3
MultiPageSettings/GlueMarginsRight
350
1BC
  3
MultiPageSettings/GlueMarginsTop
350
1BD
  3
MultiPageSettings/PrintCropMarks
350
1BE
  3
MultiPageSettings/Rows
350
1BF
  3
PageSettings/OffsetX
350
1C0
  3
PageSettings/OffsetY
350
1C1
  3
PageSettings/PageOrientation
350
1C2
  3
PageSettings/PaperHeight
350
1C3
  3
PageSettings/PaperWidth
350
1C4
  3
PageSettings/Scale
350
1C5
  3
PageSettings/ShowPaperBorders
350
1C6
  3
PageTagSettings/EnablePageTags
350
1C7
  3
PageTagSettings/TagAlignment
350
1C8
  3
PageTagSettings/TagFont
350
1C9
  3
PageTagSettings/TagPosition
350
1CA
  3
QCADVersion
350
1CB
  3
UnitSettings/PaperUnit
350
1CC
  3
ViewportCenter
350
1CD
  3
ViewportHeight
350
1CE
  3
ViewportWidth
350
1CF
  0
XRECORD
  5
19B
330
198
100
AcDbXrecord
280
1
1000
Branco
  0
XRECORD
  5
19C
330
198
100
AcDbXrecord
280
1
1000
FullColor
  0
XRECORD
  5
19D
330
198
100
AcDbXrecord
280
1
290
1
  0
XRECORD
  5
19E
330
198
100
AcDbXrecord
280
1
290
1
  0
XRECORD
  5
19F
330
198
100
AcDbXrecord
280
1
290
1
  0
XRECORD
  5
1A0
330
198
100
AcDbXrecord
280
1
290
1
  0
XRECORD
  5
1A1
330
198
100
AcDbXrecord
280
1
1000
auto
  0
XRECORD
  5
1A2
330
198
100
AcDbXrecord
280
1
1000
auto
  0
XRECORD
  5
1A3
330
198
100
AcDbXrecord
280
1
1000
auto
  0
XRECORD
  5
1A4
330
198
100
AcDbXrecord
280
1
1000
auto
  0
XRECORD
  5
1A5
330
198
100
AcDbXrecord
280
1
1000
auto
  0
XRECORD
  5
1A6
330
198
100
AcDbXrecord
280
1
1000
auto
  0
XRECORD
  5
1A7
330
198
100
AcDbXrecord
280
1
1000
auto
  0
XRECORD
  5
1A8
330
198
100
AcDbXrecord
280
1
1000
auto
  0
XRECORD
  5
1A9
330
198
100
AcDbXrecord
280
1
290
0
  0
XRECORD
  5
1AA
330
198
100
AcDbXrecord
280
1
290
0
  0
XRECORD
  5
1AB
330
198
100
AcDbXrecord
280
1
290
0
  0
XRECORD
  5
1AC
330
198
100
AcDbXrecord
280
1
290
0
  0
XRECORD
  5
1AD
330
198
100
AcDbXrecord
280
1
 90
65537
  0
XRECORD
  5
1AE
330
198
100
AcDbXrecord
280
1
 90
65537
  0
XRECORD
  5
1AF
330
198
100
AcDbXrecord
280
1
 90
65537
  0
XRECORD
  5
1B0
330
198
100
AcDbXrecord
280
1
 90
65537
  0
XRECORD
  5
1B1
330
198
100
AcDbXrecord
280
1
1000
auto
  0
XRECORD
  5
1B2
330
198
100
AcDbXrecord
280
1
1000
auto
  0
XRECORD
  5
1B3
330
198
100
AcDbXrecord
280
1
1000
auto
  0
XRECORD
  5
1B4
330
198
100
AcDbXrecord
280
1
1000
auto
  0
XRECORD
  5
1B5
330
198
100
AcDbXrecord
280
1
1000
auto
  0
XRECORD
  5
1B6
330
198
100
AcDbXrecord
280
1
1000
auto
  0
XRECORD
  5
1B7
330
198
100
AcDbXrecord
280
1
1000
auto
  0
XRECORD
  5
1B8
330
198
100
AcDbXrecord
280
1
1000
auto
  0
XRECORD
  5
1B9
330
198
100
AcDbXrecord
280
1
 90
1
  0
XRECORD
  5
1BA
330
198
100
AcDbXrecord
280
1
 40
10.0
  0
XRECORD
  5
1BB
330
198
100
AcDbXrecord
280
1
 40
10.0
  0
XRECORD
  5
1BC
330
198
100
AcDbXrecord
280
1
 40
10.0
  0
XRECORD
  5
1BD
330
198
100
AcDbXrecord
280
1
 40
10.0
  0
XRECORD
  5
1BE
330
198
100
AcDbXrecord
280
1
290
0
  0
XRECORD
  5
1BF
330
198
100
AcDbXrecord
280
1
 90
1
  0
XRECORD
  5
1C0
330
198
100
AcDbXrecord
280
1
 40
0.0
  0
XRECORD
  5
1C1
330
198
100
AcDbXrecord
280
1
 40
0.0
  0
XRECORD
  5
1C2
330
198
100
AcDbXrecord
280
1
1000
Portrait
  0
XRECORD
  5
1C3
330
198
100
AcDbXrecord
280
1
 40
297.0
  0
XRECORD
  5
1C4
330
198
100
AcDbXrecord
280
1
 40
210.0
  0
XRECORD
  5
1C5
330
198
100
AcDbXrecord
280
1
1000
1:1
  0
XRECORD
  5
1C6
330
198
100
AcDbXrecord
280
1
290
1
  0
XRECORD
  5
1C7
330
198
100
AcDbXrecord
280
1
290
0
  0
XRECORD
  5
1C8
330
198
100
AcDbXrecord
280
1
1000
Inside
  0
XRECORD
  5
1C9
330
198
100
AcDbXrecord
280
1
1000
Arial,10,-1,5,50,0,0,0,0,0
  0
XRECORD
  5
1CA
330
198
100
AcDbXrecord
280
1
1000
TopLeft
  0
XRECORD
  5
1CB
330
198
100
AcDbXrecord
280
1
1000
3.27.8
  0
XRECORD
  5
1CC
330
198
100
AcDbXrecord
280
1
 90
4
  0
XRECORD
  5
1CE
330
198
100
AcDbXrecord
280
1
 40
191.3332223752332766
  0
XRECORD
  5
1CF
330
198
100
AcDbXrecord
280
1
 40
385.7441909548938952
  0
ENDSEC
  0
EOF
